<?xml version="1.0" standalone="no"?>
<!DOCTYPE svg PUBLIC "-//W3C//DTD SVG 20010904//EN"
 "http://www.w3.org/TR/2001/REC-SVG-20010904/DTD/svg10.dtd">
<svg version="1.0" xmlns="http://www.w3.org/2000/svg"
 width="702.000000pt" height="705.000000pt" viewBox="0 0 702.000000 705.000000"
 preserveAspectRatio="xMidYMid meet">

<g transform="translate(0.000000,705.000000) scale(0.100000,-0.100000)"
fill="#000000" stroke="none">
<path d="M3375 6963 c-7 -83 -10 -124 -20 -303 -2 -42 -4 -80 -5 -85 -2 -6 -2
-20 -1 -33 1 -33 21 -17 21 17 0 34 9 44 26 30 8 -7 14 -7 19 1 9 14 58 13 73
-2 18 -18 15 -27 -8 -23 -31 6 -25 -24 7 -36 19 -7 29 -7 31 0 2 7 10 6 23 -2
20 -13 25 -33 9 -39 -21 -7 2 -47 31 -53 16 -4 27 -11 23 -16 -3 -5 0 -9 7 -9
9 0 9 -3 0 -14 -10 -12 -7 -18 13 -32 15 -9 29 -27 32 -41 4 -13 8 -22 10 -20
5 4 25 180 29 252 2 33 8 116 14 185 5 69 13 167 16 218 l7 92 -175 0 -175 0
-7 -87z m38 -179 c-19 -29 -28 -25 -19 10 4 17 11 23 21 20 12 -5 12 -9 -2
-30z m14 -48 c-3 -8 2 -16 14 -19 13 -3 19 -14 19 -32 0 -21 -4 -26 -16 -21
-9 3 -20 6 -25 6 -6 0 -9 7 -7 16 2 10 -3 19 -11 22 -10 3 -11 -2 -6 -19 4
-13 11 -25 16 -27 10 -4 0 -32 -12 -32 -5 0 -9 9 -9 20 0 11 -4 20 -10 20 -11
0 -13 30 -4 54 3 8 12 12 19 10 7 -3 16 -1 20 5 9 16 18 13 12 -3z m38 4 c3
-5 -1 -10 -10 -10 -9 0 -13 5 -10 10 3 6 8 10 10 10 2 0 7 -4 10 -10z"/>
<path d="M5670 6701 c-31 -6 -62 -20 -162 -72 -74 -39 -141 -94 -155 -128 -24
-61 -34 -85 -50 -116 -9 -16 -19 -46 -24 -65 -4 -19 -13 -55 -19 -80 -16 -63
2 -128 49 -181 l37 -42 62 13 c34 8 62 18 62 23 0 4 5 5 10 2 6 -4 8 -16 4
-27 -6 -20 -4 -21 55 -15 65 5 129 32 175 72 16 14 35 25 42 25 12 0 29 47 50
133 3 15 11 30 17 34 10 6 8 -16 -8 -80 -6 -21 -3 -26 17 -29 14 -2 29 -15 40
-36 16 -32 17 -33 28 -13 6 12 7 21 3 22 -4 0 1 4 12 9 18 8 19 9 1 9 -12 1
-16 6 -12 17 3 9 6 20 6 25 0 6 9 7 20 4 20 -6 28 9 10 20 -5 3 -10 15 -10 26
0 11 5 17 10 14 14 -9 12 8 -2 28 -7 9 -27 18 -45 19 -36 2 -34 18 3 18 29 0
61 -30 70 -67 8 -32 73 -113 90 -113 6 0 16 6 22 13 13 16 -7 143 -30 197 -9
19 -20 64 -26 98 -16 93 -46 147 -106 192 -71 53 -150 70 -246 51z m240 -416
c10 -13 9 -15 -8 -15 -15 0 -20 5 -16 15 4 8 7 15 9 15 1 0 8 -7 15 -15z
m-365 -215 c3 -5 1 -10 -4 -10 -6 0 -11 5 -11 10 0 6 2 10 4 10 3 0 8 -4 11
-10z"/>
<path d="M3400 6560 c0 -5 5 -10 11 -10 5 0 7 5 4 10 -3 6 -8 10 -11 10 -2 0
-4 -4 -4 -10z"/>
<path d="M1262 6348 c2 -18 10 -23 36 -24 18 0 39 -7 46 -15 17 -17 25 -94 11
-95 -23 -2 -45 -17 -50 -35 -10 -29 -11 -148 -2 -142 4 2 7 14 7 26 0 46 13
68 46 82 38 15 43 39 24 105 -7 23 -7 36 0 38 17 6 11 38 -9 56 -12 11 -27 15
-39 11 -11 -3 -23 -1 -27 5 -3 5 -15 10 -26 10 -15 0 -20 -6 -17 -22z"/>
<path d="M2038 6243 c-26 -7 -22 -33 5 -33 20 -1 19 -2 -8 -17 -45 -25 -59
-42 -61 -82 -3 -47 -21 -94 -34 -86 -6 4 -7 12 -3 18 3 7 -3 4 -15 -6 -11 -11
-36 -20 -54 -21 -18 -2 -40 -6 -48 -9 -11 -5 -20 5 -35 38 -21 49 -44 58 -77
28 -28 -25 -31 -10 -6 30 14 21 31 36 43 37 18 0 16 4 -12 30 -17 16 -33 35
-36 42 -2 7 -8 9 -13 5 -5 -5 -1 -21 8 -37 9 -16 13 -32 9 -35 -5 -2 -11 3
-13 13 -3 10 -22 22 -49 29 -90 24 -96 24 -102 3 -4 -16 0 -20 18 -20 36 0 54
-10 48 -26 -3 -8 3 -24 13 -35 14 -15 16 -25 8 -46 -13 -38 -37 -50 -67 -34
-39 21 -52 10 -27 -22 20 -25 21 -32 11 -74 -16 -63 -7 -65 15 -3 10 27 24 50
31 50 7 0 13 -5 13 -11 0 -20 -54 -99 -67 -99 -7 0 -13 -3 -14 -7 0 -5 -2 -20
-3 -35 -1 -15 -7 -33 -13 -39 -12 -12 -12 -12 -39 56 -7 16 -9 13 -12 -17 -4
-44 -8 -46 -39 -16 -25 23 -29 15 -13 -26 5 -14 6 -36 1 -48 -14 -39 -22 -2
-23 105 0 127 0 129 11 123 5 -4 7 3 4 15 -4 15 -11 19 -27 15 -11 -3 -24 -6
-29 -6 -4 0 -1 -13 8 -30 18 -34 13 -38 -19 -12 -12 9 -20 25 -18 35 2 9 -1
17 -6 17 -12 0 -27 -78 -18 -87 3 -4 6 1 6 11 0 16 1 15 19 -1 13 -12 19 -31
18 -60 0 -24 2 -46 6 -50 13 -12 7 -54 -8 -60 -24 -8 -44 26 -45 74 0 29 4 42
15 45 13 2 12 5 -4 15 -18 12 -20 8 -26 -61 -7 -74 -25 -127 -25 -75 0 14 -7
34 -15 45 -13 17 -15 14 -16 -41 -1 -33 -1 -81 0 -108 2 -35 -2 -49 -13 -53
-20 -8 -21 -24 -1 -24 20 0 20 -5 -21 -165 -20 -77 -44 -174 -53 -215 -9 -41
-19 -80 -23 -85 -7 -12 8 -43 16 -34 3 3 7 21 10 39 2 19 9 55 15 80 6 25 17
72 25 105 8 33 22 85 30 115 22 74 25 89 32 130 3 19 8 37 10 39 16 17 8 -30
-41 -239 -37 -155 -42 -185 -32 -192 7 -4 5 -15 -6 -31 -8 -13 -19 -40 -22
-61 -7 -35 -6 -36 20 -34 15 2 30 9 33 18 3 8 11 20 18 25 11 9 43 171 75 379
5 33 16 67 24 76 18 20 19 40 3 41 -7 0 -4 4 7 8 11 5 32 4 47 -1 26 -9 26
-10 7 -29 -10 -10 -19 -24 -19 -30 0 -6 -9 -22 -20 -36 -15 -19 -20 -41 -20
-87 -1 -33 -7 -95 -14 -136 -9 -51 -10 -77 -3 -82 6 -3 10 -23 10 -45 -1 -21
1 -32 4 -25 6 16 23 15 23 -2 0 -20 29 -41 40 -30 6 6 13 38 16 72 4 35 11 65
17 69 7 4 8 -17 3 -61 -4 -40 -3 -65 2 -62 14 9 21 -69 16 -189 -3 -75 -1
-105 6 -95 5 8 10 23 10 33 0 10 4 16 9 13 11 -7 21 28 21 79 0 22 5 47 10 55
7 10 10 -7 10 -58 0 -40 4 -71 9 -68 11 7 22 60 22 106 0 34 0 34 16 -14 13
-39 18 -45 24 -30 4 11 8 13 8 7 1 -7 5 -13 10 -13 12 0 20 64 26 214 5 114 7
131 25 143 17 12 20 12 20 -1 0 -8 -4 -17 -9 -21 -5 -3 -7 -27 -5 -53 3 -26 5
-66 5 -89 0 -30 5 -45 17 -52 16 -10 16 -10 0 -11 -10 0 -18 -5 -18 -11 0 -5
4 -8 9 -4 5 3 9 -8 9 -24 -1 -17 -5 -28 -10 -25 -4 3 -8 -2 -8 -10 0 -9 6 -13
14 -10 8 3 17 1 21 -5 3 -6 1 -11 -5 -11 -7 0 -10 -6 -7 -14 3 -7 0 -19 -6
-26 -9 -10 -9 -11 0 -6 6 3 14 2 18 -4 3 -5 1 -10 -4 -10 -25 0 -9 -20 17 -21
26 -1 25 -1 -8 -12 -32 -10 -33 -11 -11 -15 13 -2 34 2 47 8 12 7 28 10 36 7
7 -3 3 -6 -9 -6 -33 -1 -28 -21 5 -22 l27 -1 -28 -10 c-29 -10 -28 -31 1 -22
16 5 16 5 0 -6 -24 -15 -22 -28 5 -33 19 -4 18 -4 -5 -6 -16 0 -28 -5 -28 -11
0 -10 9 -13 50 -12 16 1 19 -1 8 -4 -10 -3 -18 -10 -18 -15 0 -15 32 -10 45 7
9 13 16 14 31 6 17 -10 17 -11 2 -12 -10 0 -18 -4 -18 -10 0 -5 7 -10 17 -10
9 0 13 -3 9 -7 -11 -11 -45 -13 -51 -3 -8 13 -65 13 -65 -1 0 -5 4 -8 9 -4 5
3 12 1 16 -5 3 -5 -3 -10 -15 -10 -12 0 -18 -4 -15 -10 4 -6 13 -9 20 -8 8 2
14 -1 14 -7 0 -5 -6 -9 -14 -7 -7 1 -16 -2 -20 -8 -4 -6 7 -10 29 -10 34 0 57
15 34 22 -19 7 1 28 25 27 12 0 16 -3 9 -6 -20 -8 -3 -23 25 -23 31 0 22 -14
-10 -17 -12 -1 -44 -5 -70 -9 -43 -6 -49 -5 -54 14 -3 12 -12 23 -22 25 -14 4
-14 5 2 6 21 1 23 21 2 21 -8 0 -15 -3 -16 -7 0 -5 -2 -16 -4 -25 -2 -10 1
-18 6 -18 4 0 6 -7 3 -15 -5 -11 1 -15 22 -17 47 -2 52 -3 60 -11 4 -4 -3 -7
-15 -7 -12 0 -19 -4 -16 -10 4 -6 11 -8 16 -5 5 4 9 2 9 -4 0 -6 -16 -8 -40
-5 -26 4 -40 2 -40 -5 0 -6 14 -11 31 -11 23 0 32 -5 37 -22 5 -21 6 -21 13
-2 7 18 8 18 8 0 1 -15 6 -17 28 -11 16 4 25 3 21 -1 -4 -4 -1 -12 7 -18 13
-9 11 -11 -10 -12 -14 -1 -22 2 -19 7 3 5 -11 9 -30 9 -20 0 -36 -5 -36 -11 0
-6 9 -9 20 -6 11 3 23 1 26 -5 4 -5 -7 -8 -27 -6 -32 3 -34 5 -31 36 3 26 0
32 -17 32 -11 0 -23 -4 -26 -10 -3 -5 -1 -10 5 -10 7 0 10 -7 6 -15 -3 -8 0
-15 7 -15 8 0 8 -3 -2 -9 -11 -7 -10 -11 6 -19 11 -6 28 -11 39 -10 10 0 39
-4 64 -8 25 -5 60 -8 78 -9 17 0 32 -3 32 -7 0 -3 24 -10 53 -14 57 -9 56 -8
77 -17 39 -15 121 -38 139 -40 12 -1 21 -4 21 -7 0 -8 84 -35 200 -64 52 -14
102 -27 111 -31 18 -7 45 40 28 51 -7 4 -6 10 1 19 6 8 10 22 9 32 -1 10 1 25
4 33 3 8 8 32 12 52 3 20 11 39 18 41 9 4 9 6 0 6 -9 1 -10 8 -4 24 5 13 12
41 15 61 4 21 9 42 12 47 3 5 7 28 9 52 2 23 9 60 15 82 7 22 14 54 16 70 14
111 17 132 25 153 5 13 23 29 40 36 18 7 37 24 44 36 l13 23 6 -21 c4 -12 11
-22 16 -22 5 0 7 7 4 15 -8 21 12 19 28 -3 13 -18 26 -21 43 -11 6 4 21 3 34
-2 18 -7 21 -12 12 -23 -8 -9 -10 -42 -5 -102 3 -49 8 -92 10 -96 12 -19 61
13 75 49 8 21 24 27 67 26 9 -1 11 9 6 36 -8 45 -12 51 -27 46 -8 -3 -13 7
-14 29 -1 27 3 35 19 39 13 4 19 11 15 21 -3 8 0 34 7 58 13 42 13 42 21 16 4
-16 12 -28 17 -28 6 0 8 -27 6 -65 -1 -36 -2 -65 -1 -65 1 0 9 7 17 16 22 22
20 55 -9 118 -14 30 -25 60 -25 67 0 15 -23 82 -30 89 -3 3 -12 24 -20 48 -15
47 -42 55 -48 14 -3 -18 -10 -22 -37 -22 -25 0 -46 10 -80 40 -25 22 -49 40
-53 40 -3 0 8 -12 25 -27 22 -20 33 -39 35 -64 3 -27 0 -35 -9 -32 -9 4 -11 0
-7 -11 4 -11 -2 -26 -16 -41 -20 -22 -21 -25 -6 -31 9 -3 16 -10 16 -15 0 -5
-12 -4 -26 1 -26 10 -54 33 -54 45 0 4 -9 18 -20 32 -30 38 -25 46 23 39 29
-4 38 -3 27 4 -8 5 -29 10 -47 10 -24 0 -41 10 -75 45 -24 25 -61 52 -83 60
-22 8 -39 19 -38 24 4 14 -2 14 -35 -2 -39 -20 -77 -8 -77 23 0 18 6 26 23 28
25 4 29 33 9 69 -12 22 -13 22 -72 -35 -33 -31 -69 -64 -80 -72 -47 -36 13 29
87 96 77 68 77 69 71 109 -3 22 -14 52 -24 67 -11 14 -19 37 -19 50 0 30 -26
68 -47 68 -12 0 -14 -7 -9 -32 3 -17 14 -40 23 -50 15 -17 15 -18 0 -18 -24 0
-21 -17 4 -25 27 -9 13 -24 -27 -28 -40 -4 -81 -32 -60 -40 9 -4 13 -13 10
-22 -5 -12 -14 -14 -34 -10 -33 7 -47 -7 -25 -25 18 -15 19 -42 3 -58 -6 -6
-11 -32 -11 -56 0 -28 -5 -47 -14 -50 -7 -3 -13 -10 -13 -17 0 -6 7 -8 15 -5
8 3 22 9 32 13 11 4 14 3 9 -5 -4 -8 2 -16 16 -21 21 -9 19 -10 -13 -10 -19
-1 -60 3 -90 9 -50 9 -263 23 -354 23 -53 0 -182 -14 -205 -23 -3 -1 -8 -2
-12 -1 -10 1 -31 -39 -24 -46 3 -3 -3 -13 -13 -22 -10 -9 -21 -25 -23 -36 -9
-39 -31 124 -26 191 4 61 10 76 49 132 l43 64 27 -33 c26 -32 27 -33 68 -21
43 13 46 18 32 41 -6 9 -18 11 -35 7 -15 -4 -24 -11 -21 -16 3 -6 2 -10 -3
-10 -21 0 -21 33 0 61 12 16 25 29 29 29 4 0 16 13 25 29 10 16 28 31 41 34
20 4 23 0 23 -24 0 -32 29 -100 48 -112 19 -13 15 -39 -5 -33 -21 7 -48 -8
-40 -21 3 -5 -12 -14 -34 -20 -37 -10 -43 -7 -41 18 1 3 -5 6 -13 6 -15 0 -11
-11 13 -40 14 -15 13 -19 -6 -40 -12 -13 -22 -28 -22 -34 0 -7 -22 -10 -62 -7
-49 3 -55 2 -28 -5 58 -14 90 -30 90 -45 0 -9 10 -13 33 -10 17 1 47 3 66 3
24 1 32 5 28 15 -5 11 0 11 23 -2 16 -9 32 -14 35 -10 4 4 -10 36 -30 72 -20
36 -32 66 -27 66 13 0 44 -47 62 -95 13 -34 20 -40 48 -42 31 -3 33 -1 30 24
-2 19 2 27 15 29 9 1 15 -2 11 -7 -3 -5 1 -9 10 -9 8 0 17 -6 19 -12 4 -8 6
-7 6 3 1 9 8 20 17 23 10 4 13 2 8 -7 -5 -8 -2 -7 9 2 23 18 21 38 -3 46 -11
3 -19 9 -17 13 1 4 -2 7 -6 7 -5 0 -13 8 -18 18 -12 20 -35 23 -42 5 -2 -7 -7
-11 -10 -8 -9 9 -10 63 -2 153 l7 88 -38 35 -39 35 40 -6 c22 -3 46 -14 53
-23 10 -14 12 -13 12 10 0 27 -31 56 -75 72 -16 6 -18 5 -7 -5 18 -19 15 -27
-12 -25 -13 0 -22 6 -19 12 2 7 0 15 -6 19 -19 11 -12 23 23 36 25 9 32 17 28
31 -6 23 3 23 45 -3 19 -12 37 -19 40 -16 12 12 -8 39 -37 50 -27 10 -30 16
-30 52 0 41 1 41 31 37 34 -5 68 21 115 90 24 34 26 41 14 62 -17 32 -59 43
-112 29z m-26 -105 c-7 -7 -12 -8 -12 -2 0 14 12 26 19 19 2 -3 -1 -11 -7 -17z
m-354 -177 c1 -28 -3 -53 -8 -56 -6 -3 -10 -14 -10 -24 0 -10 -8 -25 -17 -33
-21 -17 -63 -22 -63 -7 0 9 89 169 94 169 1 0 3 -22 4 -49z m178 -25 c1 -26
-2 -34 -9 -27 -6 6 -19 11 -29 11 -12 0 -16 5 -11 18 19 53 48 52 49 -2z m72
-57 c8 -12 9 -18 3 -14 -7 4 -11 -7 -11 -29 0 -27 -3 -34 -15 -30 -8 4 -13 10
-10 14 3 5 1 12 -5 15 -6 4 -8 16 -4 27 4 14 2 18 -5 14 -6 -4 -11 0 -11 8 0
24 43 20 58 -5z m-121 -28 l26 24 -19 -27 c-24 -33 -57 -55 -62 -40 -1 5 -12
8 -23 5 -19 -5 -36 -44 -25 -61 3 -5 -3 -17 -13 -26 -15 -14 -20 -14 -30 -3
-15 18 20 104 52 129 21 16 23 16 44 -4 l23 -21 27 24z m-190 -50 c1 -10 -9
-29 -23 -42 -13 -12 -24 -19 -24 -15 0 5 -6 4 -12 -2 -10 -8 -13 -3 -13 21 0
27 4 33 25 35 14 2 29 8 35 13 12 11 11 12 12 -10z m188 -65 c-10 -14 -23 -26
-31 -26 -7 0 -19 -8 -26 -19 -13 -17 -69 -51 -85 -51 -4 0 0 6 9 13 9 8 18 19
20 27 8 36 58 68 58 38 0 -7 14 2 32 19 37 37 47 36 23 -1z m-40 14 c-3 -5
-11 -10 -16 -10 -6 0 -7 5 -4 10 3 6 11 10 16 10 6 0 7 -4 4 -10z m-135 -16
c0 -8 -5 -12 -10 -9 -6 4 -8 11 -5 16 9 14 15 11 15 -7z m-276 -19 c9 -34 0
-48 -24 -35 -15 8 -17 13 -7 35 15 32 23 32 31 0z m172 -32 c-11 -11 -17 4 -9
23 7 18 8 18 11 1 2 -10 1 -21 -2 -24z m458 6 c-3 -5 -10 -7 -15 -3 -5 3 -7
10 -3 15 3 5 10 7 15 3 5 -3 7 -10 3 -15z m-704 -86 c0 -13 -3 -13 -15 -3 -8
7 -15 19 -15 27 0 13 3 13 15 3 8 -7 15 -19 15 -27z m720 -14 c0 -38 -26 -39
-33 -2 -6 34 -1 44 18 36 9 -3 15 -18 15 -34z m-543 -11 c-3 -8 -6 -5 -6 6 -1
11 2 17 5 13 3 -3 4 -12 1 -19z m498 -28 c3 -5 -1 -10 -9 -10 -9 0 -16 5 -16
10 0 6 4 10 9 10 6 0 13 -4 16 -10z m-40 -10 c3 -5 -1 -10 -9 -10 -9 0 -16 5
-16 10 0 6 4 10 9 10 6 0 13 -4 16 -10z m39 -36 c5 -14 4 -15 -9 -4 -17 14
-19 20 -6 20 5 0 12 -7 15 -16z m-391 -155 c-5 -110 -9 -145 -15 -124 -8 28
-2 244 8 274 11 34 13 -6 7 -150z m301 96 c14 -21 14 -24 1 -19 -8 4 -15 10
-15 16 0 5 -5 6 -10 3 -6 -4 -8 -10 -5 -15 3 -5 -6 -7 -21 -4 -21 4 -25 2 -20
-11 4 -13 2 -14 -14 -5 -16 9 -18 15 -10 30 13 25 40 26 41 3 0 -15 3 -14 16
5 8 12 17 22 18 22 2 0 10 -11 19 -25z m783 -104 c44 -22 92 -73 74 -79 -6 -2
-11 -10 -11 -18 0 -16 -16 -19 -24 -5 -4 5 -24 12 -46 16 -22 4 -42 11 -46 16
-3 5 -20 9 -39 9 -19 0 -37 5 -40 10 -3 6 -18 10 -33 10 -41 0 -55 13 -31 29
12 7 18 8 15 3 -7 -11 52 -28 61 -18 4 3 1 17 -5 30 -11 25 -11 25 37 22 26
-2 66 -13 88 -25z m-465 -23 c-7 -7 -12 -8 -12 -2 0 14 12 26 19 19 2 -3 -1
-11 -7 -17z m222 7 c17 -13 16 -14 -12 -13 -21 1 -29 5 -25 14 6 17 13 17 37
-1z m-591 -6 c-5 -5 -25 -12 -44 -14 -19 -2 -28 -1 -21 2 6 2 10 9 6 14 -3 5
12 9 32 9 27 0 35 -3 27 -11z m325 -11 c17 -13 20 -19 9 -15 -10 4 -26 7 -35
8 -12 0 -13 2 -3 6 11 5 11 7 0 14 -8 5 -10 9 -6 9 5 0 21 -10 35 -22z m-411
-2 c-4 -9 1 -17 11 -19 16 -4 16 -5 0 -6 -10 0 -22 8 -28 19 -9 16 -8 20 6 20
10 0 14 -5 11 -14z m184 -1 c-1 -15 -24 -12 -29 3 -3 9 2 13 12 10 10 -1 17
-7 17 -13z m56 9 c-3 -3 -12 -4 -19 -1 -8 3 -5 6 6 6 11 1 17 -2 13 -5z m110
-48 c-4 -9 -12 -16 -18 -16 -8 0 -8 4 1 15 6 8 8 20 4 27 -5 10 -4 10 6 1 7
-6 10 -19 7 -27z m133 19 c0 -8 -4 -15 -9 -15 -13 0 -22 16 -14 24 11 11 23 6
23 -9z m47 -11 c-3 -3 -12 -4 -19 -1 -8 3 -5 6 6 6 11 1 17 -2 13 -5z m-512
-25 c-29 -11 -35 -10 -35 5 0 9 8 12 27 8 25 -5 25 -6 8 -13z m291 4 c-10 -10
-46 -11 -46 -1 0 4 12 8 27 8 14 0 23 -3 19 -7z m719 -30 c13 -19 14 -28 6
-31 -6 -2 -9 -8 -5 -13 3 -5 0 -9 -5 -9 -6 0 -11 11 -11 24 0 14 -4 28 -10 31
-5 3 -10 10 -10 16 0 18 18 9 35 -18z m275 7 c20 -20 19 -40 -2 -40 -10 0 -58
46 -58 56 0 12 43 1 60 -16z m-1285 -10 c-3 -5 -12 -10 -18 -10 -7 0 -6 4 3
10 19 12 23 12 15 0z m1225 -10 c8 -5 11 -10 5 -10 -5 0 -17 5 -25 10 -8 5
-10 10 -5 10 6 0 17 -5 25 -10z m-1193 -16 c-3 -3 -12 -4 -19 -1 -8 3 -5 6 6
6 11 1 17 -2 13 -5z m-230 -101 c-2 -16 -4 -3 -4 27 0 30 2 43 4 28 2 -16 2
-40 0 -55z m298 67 c3 -5 2 -10 -4 -10 -5 0 -13 5 -16 10 -3 6 -2 10 4 10 5 0
13 -4 16 -10z m72 -6 c-3 -3 -12 -4 -19 -1 -8 3 -5 6 6 6 11 1 17 -2 13 -5z
m-711 -85 l-16 -34 6 40 c3 22 8 49 12 60 6 18 7 17 10 -6 2 -15 -4 -42 -12
-60z m1541 59 c-3 -8 -6 -5 -6 6 -1 11 2 17 5 13 3 -3 4 -12 1 -19z m92 -24
c15 -11 19 -20 13 -26 -12 -12 -28 -4 -42 23 -13 23 -2 24 29 3z m-69 -28 c0
-37 -16 -72 -36 -80 -25 -9 -40 9 -24 29 7 8 10 18 6 22 -7 7 32 53 46 53 4 0
8 -11 8 -24z m-765 4 c-3 -5 -12 -10 -18 -10 -7 0 -6 4 3 10 19 12 23 12 15 0z
m55 0 c12 -8 11 -10 -7 -10 -13 0 -23 5 -23 10 0 13 11 13 30 0z m-553 -47
c-3 -10 -5 -2 -5 17 0 19 2 27 5 18 2 -10 2 -26 0 -35z m280 41 c-3 -3 -12 -4
-19 -1 -8 3 -5 6 6 6 11 1 17 -2 13 -5z m173 2 c0 -3 -4 -8 -10 -11 -5 -3 -10
-1 -10 4 0 6 5 11 10 11 6 0 10 -2 10 -4z m920 -41 c13 -16 3 -20 -24 -9 -9 3
-13 10 -10 15 8 13 20 11 34 -6z m150 -30 c-7 -8 -17 -15 -23 -15 -5 0 -2 9 8
20 21 23 35 19 15 -5z m-1305 -34 c-3 -6 3 -14 12 -20 17 -9 17 -10 -1 -17
-17 -7 -18 -8 -2 -19 14 -11 15 -13 1 -18 -8 -4 -14 -1 -12 6 1 7 -4 11 -12 9
-12 -3 -12 0 -2 12 7 8 10 20 6 26 -6 10 1 30 11 30 3 0 3 -4 -1 -9z m242 -17
c-3 -3 -12 -4 -19 -1 -8 3 -5 6 6 6 11 1 17 -2 13 -5z m198 -12 c-3 -3 -11 0
-18 7 -9 10 -8 11 6 5 10 -3 15 -9 12 -12z m-405 -66 c0 -11 -19 -15 -25 -6
-3 5 1 10 9 10 9 0 16 -2 16 -4z m325 -25 c2 -4 -11 -7 -29 -7 -20 1 -32 5
-29 12 4 11 50 7 58 -5z m-255 -1 c0 -5 -10 -10 -22 -9 -22 0 -22 1 -3 9 11 5
21 9 23 9 1 1 2 -3 2 -9z m340 0 c0 -5 -2 -10 -4 -10 -3 0 -8 5 -11 10 -3 6
-1 10 4 10 6 0 11 -4 11 -10z m-326 -61 c-3 -5 2 -12 11 -15 9 -4 14 -12 11
-20 -3 -7 0 -15 7 -17 7 -2 -3 -4 -20 -5 -18 0 -33 4 -33 10 0 5 7 8 15 4 8
-3 15 -2 15 3 0 5 -12 12 -27 16 l-28 7 25 10 c15 6 20 12 13 15 -7 3 -13 9
-13 15 0 6 6 6 15 -2 8 -7 12 -16 9 -21z m279 -36 c-7 -2 -19 -2 -25 0 -7 3
-2 5 12 5 14 0 19 -2 13 -5z m-206 -19 c-3 -3 -12 -4 -19 -1 -8 3 -5 6 6 6 11
1 17 -2 13 -5z m246 -11 c-7 -2 -19 -2 -25 0 -7 3 -2 5 12 5 14 0 19 -2 13 -5z
m44 1 c-3 -3 -12 -4 -19 -1 -8 3 -5 6 6 6 11 1 17 -2 13 -5z m-249 -11 c-23
-6 -23 -23 -1 -23 22 0 14 -6 -18 -14 -21 -5 -26 -2 -25 12 1 18 21 31 46 30
10 0 9 -2 -2 -5z m148 -25 c4 -7 3 -8 -4 -4 -7 4 -12 3 -12 -3 0 -6 -8 -7 -17
-4 -17 7 -15 8 24 22 1 1 5 -4 9 -11z m64 8 c0 -7 -40 -14 -44 -7 -3 4 6 8 20
9 13 1 24 0 24 -2z m45 -6 c3 -5 2 -10 -4 -10 -5 0 -13 5 -16 10 -3 6 -2 10 4
10 5 0 13 -4 16 -10z m-108 -81 c11 0 13 -3 5 -6 -15 -6 -72 18 -72 31 0 4 11
1 25 -8 13 -9 32 -16 42 -17z m-232 -29 c3 -5 1 -10 -5 -10 -7 0 -10 -6 -7
-13 6 -16 -22 -19 -41 -4 -9 7 -9 13 -1 23 13 16 45 18 54 4z m65 -2 c0 -4 -4
-8 -9 -8 -6 0 -12 4 -15 8 -3 5 1 9 9 9 8 0 15 -4 15 -9z m167 -14 c-3 -3 -12
-4 -19 -1 -8 3 -5 6 6 6 11 1 17 -2 13 -5z m-147 -23 c0 -5 8 -12 18 -14 11
-3 8 -5 -9 -6 -16 -1 -29 5 -33 14 -3 9 0 15 9 15 8 0 15 -4 15 -9z m186 -3
c5 -7 2 -9 -8 -5 -9 3 -20 1 -26 -5 -11 -11 -32 -3 -32 13 0 13 57 11 66 -3z
m147 5 c-7 -2 -19 -2 -25 0 -7 3 -2 5 12 5 14 0 19 -2 13 -5z m-70 -10 c-7 -2
-19 -2 -25 0 -7 3 -2 5 12 5 14 0 19 -2 13 -5z m-356 -14 c-10 -6 -30 -12 -45
-15 -26 -4 -26 -3 -8 11 11 8 31 15 45 15 23 -1 24 -2 8 -11z m293 -9 c0 -5
-7 -7 -15 -4 -8 4 -15 8 -15 10 0 2 7 4 15 4 8 0 15 -4 15 -10z m-283 -26 c-3
-3 -12 -4 -19 -1 -8 3 -5 6 6 6 11 1 17 -2 13 -5z m248 -34 c3 -5 -1 -10 -9
-10 -9 0 -16 5 -16 10 0 6 4 10 9 10 6 0 13 -4 16 -10z m-165 -4 c0 -2 -8 -10
-17 -17 -16 -13 -17 -12 -4 4 13 16 21 21 21 13z m116 -12 c-3 -9 -6 -18 -6
-20 0 -2 -5 -4 -11 -4 -8 0 -9 4 0 13 6 8 8 17 4 20 -3 4 -1 7 6 7 8 0 11 -6
7 -16z m-69 0 c-3 -3 -12 -4 -19 -1 -8 3 -5 6 6 6 11 1 17 -2 13 -5z m236 -11
c-7 -2 -19 -2 -25 0 -7 3 -2 5 12 5 14 0 19 -2 13 -5z m-156 -39 c-3 -3 -12
-4 -19 -1 -8 3 -5 6 6 6 11 1 17 -2 13 -5z m63 2 c0 -2 -11 -6 -25 -8 -13 -3
-22 -1 -19 3 5 9 44 13 44 5z"/>
<path d="M2530 5312 c0 -5 11 -12 25 -15 16 -3 24 0 22 7 -4 14 -47 21 -47 8z"/>
<path d="M3688 6113 c7 -3 16 -2 19 1 4 3 -2 6 -13 5 -11 0 -14 -3 -6 -6z"/>
<path d="M3753 6113 c9 -2 23 -2 30 0 6 3 -1 5 -18 5 -16 0 -22 -2 -12 -5z"/>
<path d="M5796 6068 c8 -44 44 -119 54 -113 4 2 13 25 19 51 12 47 7 89 -10
79 -5 -4 -9 -1 -9 4 0 6 -13 11 -30 11 -28 0 -29 -2 -24 -32z"/>
<path d="M3870 6070 c0 -5 5 -10 10 -10 6 0 10 5 10 10 0 6 -4 10 -10 10 -5 0
-10 -4 -10 -10z"/>
<path d="M5884 5985 c-13 -37 -15 -51 -5 -71 17 -39 14 -72 -9 -79 -11 -3 -20
-11 -20 -16 0 -5 -4 -9 -10 -9 -5 0 -31 -16 -57 -36 -34 -26 -41 -35 -23 -29
14 4 34 13 45 21 11 8 30 21 43 30 18 14 25 14 38 3 14 -11 18 -10 29 5 8 10
18 15 24 11 7 -4 2 -23 -14 -55 -14 -27 -25 -56 -25 -64 0 -8 -22 -47 -49 -88
-31 -46 -57 -101 -71 -149 l-22 -76 -90 -6 c-50 -3 -95 -10 -99 -14 -15 -15
-29 -270 -29 -515 l0 -236 -26 -41 c-15 -22 -40 -45 -56 -50 -15 -6 -32 -19
-36 -30 -16 -43 -388 -331 -508 -393 l-33 -18 15 -42 c8 -24 17 -50 21 -58 3
-8 7 -18 7 -22 1 -3 4 -10 9 -14 23 -23 -9 -68 -57 -80 -18 -4 -30 0 -43 15
-23 27 -47 27 -70 -2 -31 -39 -95 -78 -109 -66 -10 8 -18 1 -33 -29 -23 -45
-33 -51 -79 -45 -28 5 -31 8 -20 21 18 21 145 102 161 102 19 0 97 62 97 77 0
19 -47 16 -62 -5 -7 -9 -24 -23 -38 -30 -56 -29 -117 -71 -183 -129 -44 -39
-67 -42 -67 -9 0 19 -7 25 -35 30 -20 4 -57 4 -82 0 l-46 -7 27 -14 c25 -13
26 -16 13 -31 -8 -9 -18 -27 -21 -39 -7 -23 -6 -23 77 -23 124 0 174 -9 180
-31 7 -25 43 -24 57 2 14 26 67 24 62 -3 -7 -41 61 -26 72 16 12 43 90 113
178 160 l87 45 20 -32 20 -33 119 57 c122 58 258 138 323 190 45 35 49 36 49
5 0 -16 -12 -31 -40 -50 -54 -35 -54 -61 -1 -52 l39 6 7 -218 c4 -119 5 -293
1 -387 -11 -310 -25 -650 -27 -680 l-1 -30 -9 30 c-8 28 -8 28 -3 -5 3 -19 9
-271 14 -560 5 -288 11 -550 15 -581 l7 -56 66 -19 c37 -10 71 -17 75 -16 5 1
6 -1 3 -6 -10 -16 13 -35 60 -48 45 -13 37 -14 -109 -8 -88 3 -164 7 -171 10
-9 4 -11 88 -9 362 10 1123 7 1603 -9 1395 -1 -18 -4 -30 -7 -28 -2 3 -10 0
-16 -5 -9 -8 -14 -6 -19 5 -3 8 -15 15 -26 15 -15 0 -20 7 -20 25 0 20 5 24
23 22 16 -1 22 3 22 18 0 13 -8 21 -22 23 -22 3 -23 8 -24 80 -1 73 -1 76 -14
47 l-14 -30 -1 31 c0 17 7 37 15 44 8 7 15 27 15 45 l0 33 -82 7 c-46 4 -105
5 -133 3 l-49 -3 26 -26 c15 -15 24 -29 21 -32 -3 -4 8 -5 23 -5 68 3 167 -3
160 -9 -16 -17 -1056 17 -1094 35 -9 4 -27 7 -39 6 -27 -2 -31 23 -6 33 15 6
15 7 -3 14 -14 6 -10 8 17 8 51 1 75 32 83 108 4 34 3 64 -1 66 -5 3 -20 3
-35 0 -25 -5 -27 -10 -30 -57 l-3 -51 -35 1 c-19 1 -74 2 -122 3 l-88 1 0 31
c0 39 -28 99 -46 99 -10 0 -12 -9 -7 -32 6 -30 5 -32 -10 -19 -9 7 -17 26 -17
42 0 21 -5 29 -17 29 -10 0 -25 6 -34 13 -24 18 -59 79 -59 102 0 11 -11 32
-24 46 -23 25 -30 26 -162 32 -75 4 -173 7 -216 7 -46 0 -93 6 -113 14 -19 8
-35 12 -36 8 0 -4 -4 2 -9 13 -8 19 -9 19 -9 -2 -1 -17 -7 -23 -25 -23 -34 0
-43 -36 -51 -200 -11 -260 -26 -456 -41 -534 -8 -43 -14 -80 -14 -82 0 -2 -3
-4 -7 -4 -13 0 -6 312 11 510 28 335 29 343 18 336 -6 -4 -8 2 -4 16 4 18 2
20 -16 16 -11 -3 -23 -1 -25 6 -2 6 -3 2 -1 -9 2 -11 -1 -27 -6 -35 -8 -12
-10 -8 -12 15 -1 17 -1 40 0 52 1 25 -19 27 -30 3 -5 -12 -7 -12 -7 3 -1 9 -5
17 -10 17 -5 0 -11 -8 -14 -17 -3 -16 -5 -16 -11 2 -4 11 -15 35 -24 53 -14
29 -17 31 -23 15 -4 -10 -8 -14 -8 -9 -1 6 -8 1 -17 -10 -15 -18 -15 -18 -9 4
6 22 5 23 -15 12 -15 -8 -19 -17 -15 -33 5 -19 5 -20 -5 -4 -6 9 -8 26 -5 37
10 30 -4 24 -16 -7 l-11 -28 -14 32 c-15 35 -40 57 -30 27 3 -11 1 -26 -5 -34
-9 -13 -10 -12 -5 3 3 9 1 17 -5 17 -6 0 -9 7 -5 15 3 8 1 15 -4 15 -5 0 -13
-12 -16 -27 l-7 -28 -12 35 c-12 35 -12 35 -20 10 -8 -24 -8 -24 -17 -5 -7 17
-8 16 -5 -6 2 -17 -1 -26 -11 -26 -10 0 -12 9 -8 36 l6 36 -15 -27 c-18 -33
-25 -36 -18 -9 3 11 1 27 -5 37 -9 15 -11 15 -26 -8 -9 -14 -19 -34 -21 -44
-9 -44 -44 -153 -54 -172 -13 -25 -14 -32 -2 -32 4 0 16 28 26 62 12 45 19 57
26 47 8 -11 10 -10 8 6 -1 11 0 31 0 45 l2 25 10 -24 c6 -15 5 -36 -2 -61 -8
-27 -9 -47 -1 -69 9 -25 5 -49 -19 -138 -24 -85 -28 -115 -21 -143 5 -20 5
-49 0 -68 -5 -19 -7 -39 -4 -45 2 -7 5 -2 5 11 1 12 5 22 9 22 4 0 9 15 10 33
2 17 7 34 12 35 6 2 10 20 10 40 1 31 2 34 11 18 9 -14 6 -34 -9 -85 -27 -86
-37 -130 -24 -113 12 18 24 -23 16 -58 -4 -18 -3 -21 4 -11 11 16 27 -2 17
-19 -8 -12 14 -110 28 -125 5 -7 8 -7 7 0 -2 6 -2 24 -1 40 1 27 3 28 13 11 7
-13 7 -29 -1 -56 -6 -20 -11 -46 -10 -56 0 -11 9 10 21 46 13 43 16 66 9 68
-16 5 -14 72 2 72 9 0 12 -9 9 -29 -2 -16 1 -32 7 -35 7 -5 11 5 11 28 0 20 5
36 10 36 6 0 10 9 10 19 0 11 3 27 6 36 6 13 9 14 16 3 7 -9 8 -5 5 12 -3 14
-2 34 3 45 7 18 8 18 15 -8 5 -18 2 -35 -9 -52 -9 -13 -16 -33 -16 -45 0 -11
-4 -20 -10 -20 -5 0 -10 -13 -10 -28 0 -15 -4 -32 -8 -37 -5 -6 -19 -47 -32
-93 -19 -67 -21 -87 -11 -108 7 -17 8 -31 1 -42 -8 -14 -9 -12 -10 11 0 15 -4
27 -9 27 -6 0 -6 -12 0 -32 5 -18 9 -34 9 -36 0 -2 7 3 15 12 18 17 19 40 4
64 -9 14 -9 27 -1 48 l10 29 1 -33 c1 -37 28 -108 38 -99 3 4 -2 22 -11 39
-16 29 -16 36 -3 61 l14 27 13 -46 c10 -34 10 -56 2 -87 -25 -101 -41 -166
-52 -222 -10 -47 -14 -56 -21 -40 -6 15 -8 11 -8 -18 -1 -21 -7 -45 -15 -53
-19 -19 -28 -18 -25 4 1 9 0 19 -1 22 -10 26 -5 50 16 77 25 33 31 53 14 53
-5 0 -10 -9 -10 -21 0 -11 -4 -18 -9 -15 -5 4 -11 0 -14 -6 -2 -7 -8 -10 -12
-6 -4 4 -2 14 5 23 7 8 10 25 7 37 -9 38 -16 71 -23 101 -3 15 -10 25 -14 22
-5 -3 -7 -12 -4 -19 3 -8 0 -17 -7 -22 -9 -5 -10 -2 -6 9 3 9 2 19 -4 23 -6 3
1 17 16 31 14 14 24 35 24 47 -1 17 -2 17 -6 4 -5 -22 -23 -24 -23 -3 0 10 -6
12 -17 8 -17 -6 -17 -6 -1 10 19 20 33 56 24 64 -3 4 -6 -1 -6 -9 0 -9 -7 -19
-16 -22 -21 -8 -24 -8 -24 5 0 5 5 7 12 3 8 -5 9 2 5 24 -7 32 8 56 16 25 2
-10 4 -1 4 20 1 41 -3 45 -24 20 -13 -17 -14 -16 -10 4 3 12 1 23 -4 25 -4 2
-4 10 1 18 8 13 10 12 10 -2 0 -10 5 -18 10 -18 6 0 8 10 5 23 -15 70 -107
444 -112 457 -4 8 -7 18 -7 22 -1 3 -4 9 -8 13 -4 4 -4 21 -1 39 5 26 4 29 -8
19 -14 -11 -16 -6 -19 60 -1 9 -5 17 -11 17 -5 0 -9 9 -9 20 0 11 -4 20 -10
20 -5 0 -10 6 -10 13 0 18 -24 67 -32 67 -13 0 -9 -38 5 -43 8 -3 7 -10 -7
-26 -11 -11 -24 -21 -29 -21 -6 0 -2 9 8 20 14 16 16 23 7 32 -9 9 -12 8 -12
-5 0 -9 -4 -17 -10 -17 -15 0 -12 12 10 40 20 25 27 60 12 60 -4 0 -12 -10
-17 -22 -11 -24 -41 -39 -33 -17 3 8 10 13 15 12 5 -1 9 7 9 18 0 24 -5 24
-22 2 -11 -15 -13 -16 -14 -2 0 8 5 20 11 26 18 18 1 37 -19 21 -13 -11 -15
-10 -10 14 3 17 1 26 -6 25 -6 -1 -10 6 -8 16 2 9 -4 20 -13 23 -8 3 -15 11
-15 17 0 12 -77 87 -90 87 -6 0 -10 7 -10 15 0 18 -5 18 -30 5 -15 -8 -21 -6
-29 7 -6 10 -11 12 -11 6 0 -7 -9 -13 -20 -13 -13 0 -18 5 -14 15 5 11 -1 15
-17 15 -20 0 -21 -2 -9 -11 11 -7 6 -8 -20 -4 -113 18 -184 25 -255 25 -95 0
-128 7 -121 26 3 7 1 16 -4 19 -6 4 -10 -3 -10 -14 0 -19 -6 -21 -55 -21 -30
0 -55 5 -55 10 0 6 6 10 13 10 8 0 7 3 -3 10 -9 6 -17 5 -21 -2 -4 -6 -17 -8
-30 -5 -44 10 -171 -9 -182 -28 -8 -14 -11 -15 -18 -4 -8 12 -10 12 -18 0 -5
-7 -19 -15 -32 -16 -13 -1 -27 -3 -31 -4 -5 0 -8 -10 -8 -21 0 -11 -5 -20 -11
-20 -5 0 -8 4 -5 9 4 5 -3 7 -14 4 -11 -3 -20 -9 -20 -13 0 -11 -50 -31 -61
-24 -6 4 -5 11 2 20 10 12 9 13 -5 8 -18 -7 -21 -20 -6 -29 8 -5 8 -11 1 -19
-6 -7 -8 -16 -4 -20 4 -4 0 -4 -10 0 -20 7 -50 -13 -41 -28 4 -6 -3 -5 -15 1
-16 9 -21 9 -21 0 0 -6 -7 -9 -14 -6 -10 4 -13 1 -9 -8 3 -9 -3 -18 -13 -21
-11 -4 -27 -14 -36 -21 -9 -8 -22 -12 -27 -8 -6 3 -11 1 -11 -4 0 -6 -4 -11
-9 -11 -5 0 -8 12 -5 26 4 21 2 25 -11 20 -9 -3 -19 -6 -21 -6 -2 0 -4 -4 -4
-10 0 -5 6 -10 13 -10 19 0 19 -40 0 -47 -10 -4 -24 3 -36 18 -17 20 -19 20
-13 4 15 -37 12 -50 -12 -50 -13 0 -32 -11 -41 -24 -12 -15 -24 -22 -34 -18
-11 4 -14 2 -11 -7 3 -9 -7 -18 -27 -25 -18 -6 -39 -20 -47 -32 -8 -11 -20
-18 -28 -15 -8 3 -14 -1 -14 -9 0 -13 -7 -17 -26 -14 -3 1 -19 -11 -34 -26
-17 -16 -35 -25 -44 -22 -10 4 -13 1 -10 -8 3 -8 -4 -16 -18 -21 -12 -4 -43
-24 -68 -44 -25 -21 -55 -41 -67 -45 -21 -6 -27 -16 -24 -37 0 -3 -10 -5 -24
-4 -17 2 -25 -3 -29 -19 -3 -13 -13 -22 -22 -21 -9 0 -21 -7 -28 -17 -9 -15
-7 -21 7 -31 16 -12 16 -14 2 -20 -11 -4 -14 -2 -9 6 5 8 2 9 -10 5 -9 -4 -15
-3 -12 2 3 5 -3 11 -14 14 -15 4 -19 1 -17 -15 2 -11 10 -24 17 -28 8 -5 11
-12 7 -16 -4 -4 -8 -5 -10 -3 -2 2 -13 17 -25 33 l-22 29 0 -306 c1 -228 4
-307 13 -310 9 -3 9 -8 0 -18 -10 -10 -13 -327 -13 -1516 l0 -1503 3510 0
c2333 0 3510 3 3510 10 0 10 -421 11 -2742 10 -611 0 -899 3 -903 10 -3 6 -11
8 -16 5 -5 -4 -9 -1 -9 5 0 6 -5 8 -11 5 -6 -4 -21 3 -35 16 -13 13 -32 24
-41 25 -9 2 -20 10 -25 19 -5 8 -13 13 -18 10 -15 -9 -31 33 -24 62 12 55 15
61 34 66 11 3 20 13 20 22 0 16 37 54 53 55 5 0 22 14 37 30 15 17 37 30 49
30 11 0 25 9 31 19 14 28 13 30 -15 26 -19 -2 -25 2 -25 17 0 13 4 17 12 11
18 -10 67 -13 73 -3 2 4 -7 8 -22 8 -15 0 -29 5 -31 11 -2 6 -15 11 -28 11
-13 0 -24 5 -24 11 0 9 27 10 93 6 50 -3 139 -8 197 -11 195 -10 215 -16 207
-64 -2 -12 1 -22 6 -22 7 0 6 -5 -1 -13 -13 -12 -17 -13 -47 -16 -8 0 -15 -6
-15 -12 0 -6 7 -9 15 -5 11 4 15 -2 15 -20 0 -14 3 -23 8 -20 4 2 27 1 50 -4
36 -6 42 -5 37 8 -7 19 12 42 36 42 12 0 19 7 19 20 0 11 6 20 14 20 9 0 13 8
10 22 -2 13 -2 17 2 11 3 -7 12 -13 20 -13 9 0 11 -6 7 -17 -6 -16 -5 -16 10
-3 47 42 67 51 67 30 0 -5 12 -10 27 -10 26 0 26 1 7 15 -18 14 -18 14 4 8 12
-3 22 -11 22 -19 0 -8 6 -11 17 -7 11 4 12 8 5 11 -14 4 -16 22 -3 22 5 0 16
-7 24 -15 12 -11 17 -12 20 -2 4 9 6 9 6 0 1 -16 41 -17 41 -2 0 12 76 7 172
-11 62 -12 61 -12 53 0 -4 6 6 8 27 5 32 -4 239 -20 398 -30 134 -9 251 -28
266 -43 12 -11 18 -12 27 -3 14 14 81 15 72 1 -3 -6 1 -13 11 -17 10 -4 20 0
26 11 9 16 24 17 161 11 191 -8 221 -11 247 -25 25 -13 26 -30 3 -30 -118 -3
-211 -9 -225 -15 -26 -11 -22 -52 6 -70 19 -13 29 -14 45 -6 11 6 47 11 80 11
41 0 65 5 75 16 9 9 21 12 28 8 19 -12 277 -15 360 -4 56 7 78 6 99 -6 21 -11
29 -11 33 -1 5 9 7 9 12 0 9 -20 24 -15 24 7 0 24 22 26 44 5 20 -20 29 -19
59 9 25 23 28 23 92 11 36 -6 68 -9 70 -4 3 4 27 13 54 20 35 9 48 16 44 26
-3 8 -6 44 -7 81 l-1 67 -60 0 c-33 0 -69 6 -80 13 -17 11 -8 12 64 10 l85 -3
9 40 c4 22 6 60 3 85 -8 64 -8 70 -2 116 6 40 6 41 -23 36 -18 -2 -31 -11 -34
-23 -7 -26 -66 -26 -97 1 -13 11 -29 20 -37 20 -7 0 -13 7 -13 15 0 11 18 14
96 13 52 0 99 3 104 8 10 11 -7 135 -20 148 -6 6 -10 20 -10 33 0 13 -6 26
-14 29 -16 6 -40 90 -31 105 13 20 -6 69 -26 69 -23 0 -24 9 -3 39 l17 23 12
-30 c10 -23 20 -30 48 -34 23 -2 33 0 29 7 -4 5 -7 12 -7 15 -1 3 -11 24 -24
48 -12 24 -20 49 -18 55 4 12 47 -50 69 -99 6 -13 21 -26 32 -29 26 -5 300
-25 303 -22 1 2 -20 31 -47 67 -55 70 -69 109 -17 46 18 -22 42 -51 54 -65
l22 -26 1 67 0 66 -57 6 c-32 3 -130 8 -218 12 -88 3 -168 8 -178 11 -26 7
-20 69 6 65 9 -2 17 2 17 9 0 6 -8 9 -19 6 -23 -6 -26 11 -41 200 -6 70 -17
169 -25 218 -7 50 -16 119 -20 155 -3 36 -12 97 -21 135 -8 39 -21 116 -29
173 -14 100 -46 190 -83 234 -12 14 -14 35 -9 94 3 42 8 78 11 81 5 5 374 -10
574 -23 l92 -6 0 51 0 51 -35 0 c-23 0 -35 5 -35 14 0 14 -29 30 -38 21 -3 -3
0 -5 6 -5 7 0 12 -4 12 -10 0 -17 -28 -11 -39 8 -10 16 -10 16 -11 -2 0 -18
-6 -19 -127 -12 -71 3 -187 9 -260 13 l-132 6 -11 69 c-11 64 -10 74 14 147
14 44 28 103 32 133 3 29 21 87 39 128 18 41 38 100 45 130 7 30 23 75 35 100
13 25 38 101 56 168 l32 122 39 6 c21 4 58 19 83 35 43 27 45 31 45 76 0 72 3
74 111 71 l94 -3 8 -120 c4 -66 13 -262 20 -435 l13 -315 1 685 c0 377 -3 690
-7 695 -9 12 -6 72 4 100 7 16 6 17 -3 5 -9 -12 -11 -7 -9 25 1 25 -2 39 -9
38 -6 -1 -13 11 -15 27 -3 21 0 30 14 33 10 3 18 14 18 27 0 14 -4 19 -12 14
-8 -5 -9 -2 -5 9 3 9 2 19 -3 22 -6 4 -10 -8 -10 -26 0 -63 -10 -21 -14 62
-18 340 -19 387 -5 387 55 -3 59 0 59 51 l0 49 -62 6 c-35 3 -100 9 -145 12
l-83 6 -5 32 c-21 133 -29 166 -45 201 -10 22 -34 57 -54 78 -20 21 -47 60
-60 86 -28 55 -126 144 -236 214 -33 22 -37 22 -95 9 -95 -22 -169 -46 -177
-57 -5 -6 -8 -4 -8 5 0 12 -2 12 -9 2 -5 -9 -15 4 -32 43 -20 47 -27 55 -46
52 -13 -2 -28 2 -34 9 -18 22 -26 17 -45 -31z m1009 -693 c12 -11 17 -12 17
-2 0 10 3 10 15 0 8 -6 19 -9 25 -5 5 3 10 1 10 -6 0 -6 -8 -9 -20 -6 -11 3
-18 1 -14 -4 3 -5 18 -9 35 -9 16 0 29 -4 29 -9 0 -6 -52 -9 -122 -8 l-123 2
-3 32 -3 32 68 -1 c46 -1 74 -6 86 -16z m-1179 -129 c-13 -118 -22 -134 -23
-42 -1 47 2 89 6 92 17 18 23 2 17 -50z m1198 15 c13 -11 17 -46 22 -188 8
-202 13 -313 26 -569 6 -102 10 -195 10 -208 0 -23 -2 -23 -105 -23 l-104 0
-5 33 c-7 40 -28 379 -24 381 79 49 93 76 84 165 -5 54 -33 229 -63 394 l-5
27 74 0 c44 0 81 -5 90 -12z m78 -549 c0 -5 -4 -9 -10 -9 -5 0 -10 7 -10 16 0
8 5 12 10 9 6 -3 10 -10 10 -16z m0 -99 c0 -5 -2 -10 -4 -10 -3 0 -8 5 -11 10
-3 6 -1 10 4 10 6 0 11 -4 11 -10z m-5166 -325 c-4 -8 -8 -15 -10 -15 -2 0 -4
7 -4 15 0 8 4 15 10 15 5 0 7 -7 4 -15z m3854 -34 c-11 -18 -11 -23 1 -30 18
-12 -4 -25 -24 -14 -12 7 -12 13 6 42 11 18 22 31 25 28 3 -3 -1 -15 -8 -26z
m-3861 -58 c-2 -16 -4 -5 -4 22 0 28 2 40 4 28 2 -13 2 -35 0 -50z m791 -8 c0
-19 -4 -35 -9 -35 -10 0 -12 53 -2 63 10 11 11 9 11 -28z m95 -61 c-5 -15 -7
-15 -15 0 -5 9 -6 26 -2 39 l7 22 8 -23 c5 -12 6 -29 2 -38z m32 15 c-5 -15
-4 -19 4 -15 6 4 11 3 11 -3 0 -5 -4 -12 -9 -15 -12 -8 -22 20 -15 39 9 23 16
18 9 -6z m-75 1 c0 -5 -4 -10 -10 -10 -5 0 -10 5 -10 10 0 6 5 10 10 10 6 0
10 -4 10 -10z m2950 6 c0 -2 -7 -6 -15 -10 -8 -3 -15 -1 -15 4 0 6 7 10 15 10
8 0 15 -2 15 -4z m-2986 -33 c-4 -22 -3 -25 5 -13 10 13 11 13 11 0 0 -8 -4
-21 -9 -28 -11 -18 -24 29 -15 52 10 26 15 18 8 -11z m158 -25 l-12 -23 6 23
c3 13 1 22 -6 22 -6 0 -8 5 -4 11 13 22 28 -9 16 -33z m105 20 c-3 -8 -6 -5
-6 6 -1 11 2 17 5 13 3 -3 4 -12 1 -19z m48 12 c3 -5 1 -10 -4 -10 -6 0 -11 5
-11 10 0 6 2 10 4 10 3 0 8 -4 11 -10z m-257 -35 c0 -19 -3 -35 -7 -35 -6 0
-7 39 -3 63 5 19 10 3 10 -28z m144 13 c-7 -7 -12 -8 -12 -2 0 6 3 14 7 17 3
4 9 5 12 2 2 -3 -1 -11 -7 -17z m-102 -41 c0 -18 -2 -19 -10 -7 -13 20 -13 43
0 35 6 -3 10 -16 10 -28z m-118 -42 c-6 -12 -9 -5 -10 27 0 40 0 41 9 16 7
-17 7 -34 1 -43z m51 -13 l-6 -26 -9 23 c-4 12 -5 34 -1 49 l6 26 9 -23 c4
-12 5 -34 1 -49z m255 37 c-3 -8 -7 -3 -11 10 -4 17 -3 21 5 13 5 -5 8 -16 6
-23z m84 -21 c-13 -13 -26 8 -17 30 6 16 7 16 17 -1 7 -13 7 -22 0 -29z m-642
15 c0 -5 -12 -19 -25 -32 -28 -26 -34 -12 -8 19 18 20 33 26 33 13z m342 -45
c-9 -9 -12 -4 -11 23 0 32 1 33 11 11 8 -17 8 -26 0 -34z m41 -14 c-6 -16 -7
-16 -13 2 -10 26 0 52 12 31 4 -8 5 -23 1 -33z m104 11 c-12 -23 -15 -25 -20
-11 -4 9 -3 15 2 12 5 -3 11 4 14 16 4 12 9 19 12 16 4 -3 0 -18 -8 -33z
m-477 10 c0 -15 -38 -40 -47 -31 -3 3 2 8 11 12 9 3 16 12 16 20 0 8 5 14 10
14 6 0 10 -7 10 -15z m413 0 c-3 -9 -8 -14 -10 -11 -3 3 -2 9 2 15 9 16 15 13
8 -4z m157 -6 c0 -6 -4 -7 -10 -4 -5 3 -10 11 -10 16 0 6 5 7 10 4 6 -3 10
-11 10 -16z m-306 -53 c-7 -20 -7 -20 -16 3 -4 13 -5 33 -2 45 7 20 7 20 16
-3 4 -13 5 -33 2 -45z m397 31 c-10 -9 -11 -8 -5 6 3 10 9 15 12 12 3 -3 0
-11 -7 -18z m-346 -35 c-6 -16 -7 -16 -17 1 -5 10 -7 26 -3 35 6 16 7 16 17
-1 5 -10 7 -26 3 -35z m105 28 c0 -5 -5 -10 -11 -10 -5 0 -7 5 -4 10 3 6 8 10
11 10 2 0 4 -4 4 -10z m-71 -21 c-16 -10 -23 -4 -14 10 3 6 11 8 17 5 6 -4 5
-9 -3 -15z m40 -41 c-8 -21 -9 -20 -4 5 3 17 2 26 -4 23 -5 -4 -7 3 -3 16 l5
22 8 -22 c5 -12 4 -32 -2 -44z m155 32 c-6 -6 -10 -3 -10 10 0 13 4 16 10 10
7 -7 7 -13 0 -20z m-534 10 c0 -5 -4 -10 -10 -10 -5 0 -10 -7 -10 -15 0 -16
-12 -20 -23 -8 -4 3 1 14 11 24 19 20 32 24 32 9z m421 -57 c-8 -15 -9 -12 -6
12 6 48 7 51 12 28 2 -12 0 -30 -6 -40z m-188 6 c-3 -10 -9 -19 -14 -19 -11 0
-12 21 -3 45 9 23 23 0 17 -26z m41 11 c-3 -62 -5 -67 -15 -40 -7 16 -7 32 0
47 14 30 16 29 15 -7z m193 8 c-3 -8 -6 -5 -6 6 -1 11 2 17 5 13 3 -3 4 -12 1
-19z m-468 -19 c-13 -10 -26 -16 -28 -13 -8 8 32 44 42 37 5 -3 -1 -14 -14
-24z m317 -11 c-2 -18 -8 -46 -14 -61 -7 -16 -12 -34 -13 -40 0 -7 -5 0 -10
15 -7 18 -7 33 0 45 6 11 11 13 11 5 0 -7 4 -11 9 -8 5 3 7 15 4 26 -5 19 2
50 11 50 2 0 3 -15 2 -32z m225 5 c-12 -20 -14 -14 -5 12 4 9 9 14 11 11 3 -2
0 -13 -6 -23z m1909 18 c0 -13 -29 -35 -37 -28 -7 8 15 37 28 37 5 0 9 -4 9
-9z m-4004 -53 c1 -27 -3 -38 -16 -41 -28 -7 -37 5 -32 46 4 32 8 38 26 35 17
-2 21 -10 22 -40z m1906 -12 c-8 -18 -10 -16 -9 17 1 28 3 33 10 21 6 -10 5
-24 -1 -38z m45 19 c-1 -22 -4 -30 -9 -22 -6 12 -1 57 7 57 2 0 3 -16 2 -35z
m1986 13 c-11 -13 -31 -42 -44 -64 l-24 -42 -18 24 c-17 23 -17 24 25 64 23
22 51 40 62 40 19 0 19 0 -1 -22z m-1832 -11 c-10 -9 -11 -8 -5 6 3 10 9 15
12 12 3 -3 0 -11 -7 -18z m-529 -9 c-7 -7 -12 -8 -12 -2 0 14 12 26 19 19 2
-3 -1 -11 -7 -17z m3299 -149 c6 -166 21 -362 39 -499 6 -41 10 -90 10 -107 0
-31 -2 -33 -35 -33 l-35 0 0 71 c0 44 -4 68 -10 64 -5 -3 -10 -2 -10 4 0 5 5
13 10 16 6 3 10 11 10 16 0 6 -4 7 -10 4 -5 -3 -10 1 -10 10 0 9 4 14 8 11 4
-2 8 135 7 305 0 202 3 308 10 306 6 -2 12 -72 16 -168z m-3111 134 c0 -20 -3
-24 -11 -16 -7 7 -9 19 -6 27 10 24 17 19 17 -11z m36 12 c-3 -8 -1 -15 3 -15
5 0 7 -9 4 -20 -9 -35 -19 -30 -20 11 -1 22 3 39 9 39 5 0 8 -7 4 -15z m197
-27 c-10 -21 -10 -21 -9 9 1 19 5 28 10 23 6 -6 5 -18 -1 -32z m-447 5 c-10
-10 -19 5 -10 18 6 11 8 11 12 0 2 -7 1 -15 -2 -18z m40 -10 c-10 -10 -19 5
-10 18 6 11 8 11 12 0 2 -7 1 -15 -2 -18z m454 6 c0 -6 -4 -7 -10 -4 -5 3 -10
11 -10 16 0 6 5 7 10 4 6 -3 10 -11 10 -16z m71 -2 c-10 -9 -11 -8 -5 6 3 10
9 15 12 12 3 -3 0 -11 -7 -18z m-225 -24 c-3 -4 -6 -1 -6 6 0 7 -4 9 -10 6 -6
-4 -7 1 -3 11 6 15 7 15 15 -1 6 -9 7 -19 4 -22z m38 -26 c-6 -18 -7 -18 -15
-4 -5 9 -6 29 -3 44 l7 27 9 -24 c5 -12 6 -32 2 -43z m-1844 33 c0 -5 -4 -10
-10 -10 -5 0 -10 5 -10 10 0 6 5 10 10 10 6 0 10 -4 10 -10z m1656 -16 c-4 -9
-9 -15 -11 -12 -3 3 -3 13 1 22 4 9 9 15 11 12 3 -3 3 -13 -1 -22z m276 -32
c-9 -24 -24 5 -17 29 8 23 8 23 15 4 4 -11 5 -26 2 -33z m-2032 28 c0 -5 -7
-10 -16 -10 -8 0 -12 5 -9 10 3 6 10 10 16 10 5 0 9 -4 9 -10z m1630 1 c0 -6
-4 -13 -10 -16 -5 -3 -10 1 -10 9 0 9 5 16 10 16 6 0 10 -4 10 -9z m223 -88
c4 -7 4 -24 1 -40 -7 -24 -8 -25 -15 -8 -4 11 -5 31 -2 44 4 16 2 22 -6 17 -7
-5 -11 5 -11 32 0 55 14 62 20 10 3 -23 9 -48 13 -55z m137 85 c0 -7 -4 -19
-9 -27 -6 -9 -8 -5 -8 13 0 14 3 26 8 26 5 0 9 -6 9 -12z m-112 -40 c1 -35 -1
-39 -10 -25 -8 16 -4 67 6 67 2 0 4 -19 4 -42z m-121 0 c-3 -8 -6 -5 -6 6 -1
11 2 17 5 13 3 -3 4 -12 1 -19z m167 -22 c-3 -9 -12 -16 -20 -16 -10 0 -11 6
-2 31 9 25 13 28 19 16 5 -8 6 -22 3 -31z m37 -23 c-6 -11 -11 -13 -11 -5 0 7
-4 11 -9 8 -5 -4 -4 10 2 30 11 37 11 37 20 11 5 -16 4 -33 -2 -44z m140 30
c-11 -16 -11 -15 -5 6 4 17 3 21 -6 16 -9 -6 -11 -4 -5 4 5 9 11 9 17 3 7 -7
6 -16 -1 -29z m-461 18 c0 -6 -4 -13 -10 -16 -5 -3 -10 1 -10 9 0 9 5 16 10
16 6 0 10 -4 10 -9z m174 -85 c-5 -14 -8 -15 -14 -6 -5 8 -8 -5 -8 -33 0 -26
4 -45 9 -41 5 3 9 -11 9 -31 0 -22 -4 -34 -10 -30 -5 3 -10 15 -10 25 0 11 -5
30 -11 44 -9 19 -8 37 7 86 17 58 19 60 26 33 4 -15 5 -36 2 -47z m188 32
c-10 -22 -11 -21 -11 12 -1 26 2 31 11 22 8 -8 8 -17 0 -34z m38 -15 c-11 -17
-11 -17 -6 0 3 10 7 26 7 35 1 15 2 15 6 0 2 -10 -1 -25 -7 -35z m71 16 c-5
-13 -10 -19 -10 -12 -1 15 10 45 15 40 3 -2 0 -15 -5 -28z m-461 2 c0 -6 -4
-13 -10 -16 -5 -3 -10 1 -10 9 0 9 5 16 10 16 6 0 10 -4 10 -9z m245 -49 c-9
-23 -24 3 -17 30 4 18 6 19 14 4 5 -10 7 -25 3 -34z m-275 28 c0 -5 -5 -10
-11 -10 -5 0 -7 5 -4 10 3 6 8 10 11 10 2 0 4 -4 4 -10z m311 -47 c-9 -15 -10
-13 -11 13 0 17 3 34 8 38 11 12 14 -32 3 -51z m51 6 c-12 -31 -26 -7 -17 29
6 23 8 24 16 10 5 -9 5 -26 1 -39z m29 -7 c-6 -2 -11 -24 -11 -48 0 -29 4 -43
10 -39 6 4 8 15 5 24 -3 12 0 18 10 18 19 0 19 3 -2 -60 -17 -48 -18 -50 -21
-22 -2 17 -8 34 -13 40 -13 14 -11 41 9 97 15 45 17 47 20 22 2 -16 -1 -30 -7
-32z m-359 26 c-7 -7 -12 -8 -12 -2 0 14 12 26 19 19 2 -3 -1 -11 -7 -17z
m399 -11 c-10 -9 -11 -8 -5 6 3 10 9 15 12 12 3 -3 0 -11 -7 -18z m-421 -2 c0
-8 -4 -15 -10 -15 -5 0 -7 7 -4 15 4 8 8 15 10 15 2 0 4 -7 4 -15z m203 -53
l-6 -26 -9 24 c-5 14 -6 36 -2 50 l6 25 9 -23 c5 -13 6 -35 2 -50z m41 -5 c-5
-16 -8 -17 -15 -6 -6 10 -9 4 -9 -19 0 -31 -28 -132 -36 -132 -2 0 -4 19 -4
43 0 31 3 38 10 27 8 -12 10 -9 10 13 0 16 7 54 16 85 15 51 18 54 26 33 4
-13 6 -33 2 -44z m37 -9 l-8 -22 -5 22 c-4 12 -4 32 0 44 l5 22 8 -22 c5 -12
5 -32 0 -44z m-232 5 c1 -22 -16 -14 -22 9 -8 28 4 47 14 22 4 -10 8 -25 8
-31z m384 23 c3 -8 -3 -36 -13 -63 -22 -57 -27 -44 -5 16 8 22 10 41 5 41 -6
0 -10 5 -10 10 0 15 17 12 23 -4z m-2194 -56 c-17 -84 -19 -90 -28 -90 -13 0
-1 92 16 118 20 32 24 24 12 -28z m2021 -17 c0 -27 -3 -34 -11 -26 -7 7 -9 23
-5 37 9 37 16 32 16 -11z m82 9 c3 -11 0 -19 -8 -19 -16 0 -16 0 -8 21 8 21
11 20 16 -2z m-276 -8 c-3 -8 -2 -12 4 -9 12 7 12 3 4 -19 -3 -9 -10 -16 -14
-16 -10 0 -21 41 -14 52 9 15 26 8 20 -8z m-2431 -74 c-9 -41 -17 -33 -9 9 4
17 9 30 11 27 3 -2 2 -19 -2 -36z m2680 13 c-7 -47 -13 -109 -8 -88 9 38 22
37 34 -3 13 -46 4 -93 -12 -57 -7 15 -8 11 -4 -15 7 -52 -12 -75 -20 -24 -3
21 -7 46 -9 54 -1 8 -9 -1 -18 -20 -14 -33 -15 -34 -22 -12 -5 14 -1 34 8 54
9 17 16 39 16 49 0 10 4 20 9 23 4 3 11 19 14 36 8 38 18 40 12 3z m42 -34
c-3 -10 -1 -17 4 -13 5 3 9 -6 9 -20 0 -36 -8 -32 -26 10 -17 40 -10 92 8 60
6 -10 8 -26 5 -37z m34 20 c-5 -13 -10 -19 -10 -12 -1 15 10 45 15 40 3 -2 0
-15 -5 -28z m-2291 6 c0 -8 -4 -15 -10 -15 -5 0 -7 7 -4 15 4 8 8 15 10 15 2
0 4 -7 4 -15z m1985 -4 c-3 -6 -11 -11 -17 -11 -6 0 -6 6 2 15 14 17 26 13 15
-4z m-35 -31 c0 -5 -2 -10 -4 -10 -3 0 -8 5 -11 10 -3 6 -1 10 4 10 6 0 11 -4
11 -10z m44 -5 c-6 -16 -24 -21 -24 -7 0 11 11 22 21 22 5 0 6 -7 3 -15z
m-799 -32 c-2 -16 -9 -58 -15 -96 -13 -80 -21 -104 -48 -134 -19 -22 -39 -32
-28 -14 3 5 -1 11 -9 15 -17 6 -20 41 -5 51 5 3 7 12 4 20 -3 8 8 43 26 78 17
35 30 68 29 73 -4 24 3 34 26 34 21 0 24 -4 20 -27z m-1671 -25 c-3 -13 -10
-30 -15 -38 -7 -13 -8 -13 -9 0 0 27 12 60 22 60 5 0 6 -10 2 -22z m2453 -50
c-3 -8 -6 -5 -6 6 -1 11 2 17 5 13 3 -3 4 -12 1 -19z m2293 12 c0 -5 -2 -10
-4 -10 -3 0 -8 5 -11 10 -3 6 -1 10 4 10 6 0 11 -4 11 -10z m-4769 -81 c-9
-23 -10 -23 -10 -2 -1 12 2 30 6 40 6 15 8 15 11 2 1 -8 -2 -26 -7 -40z m2499
37 c0 -3 -4 -8 -10 -11 -5 -3 -10 -1 -10 4 0 6 5 11 10 11 6 0 10 -2 10 -4z
m-2509 -109 c-13 -13 -15 1 -4 30 7 17 8 17 11 -1 2 -10 -1 -23 -7 -29z m2529
-7 c0 -5 -5 -10 -11 -10 -5 0 -7 5 -4 10 3 6 8 10 11 10 2 0 4 -4 4 -10z m511
-191 c0 -101 -6 -263 -15 -359 -8 -96 -18 -258 -22 -360 -3 -102 -10 -203 -16
-225 -9 -40 -12 -68 -43 -523 -15 -208 -16 -267 -6 -330 14 -89 13 -76 7 -172
-3 -41 -7 -148 -10 -238 -7 -186 -14 -206 -74 -216 -41 -6 -219 12 -242 25
-13 7 -13 8 1 9 9 0 20 8 23 18 4 9 13 29 21 44 9 15 20 76 27 137 6 61 14
111 18 111 4 0 13 13 20 29 6 16 18 32 26 35 8 3 14 12 14 19 0 8 9 22 19 31
10 10 24 36 30 59 11 44 55 470 91 877 11 129 30 325 41 435 11 110 26 269 34
354 8 85 19 190 25 235 16 121 19 149 19 175 1 13 3 22 6 19 3 -3 6 -88 6
-189z m-481 71 c0 -5 -2 -10 -4 -10 -3 0 -8 5 -11 10 -3 6 -1 10 4 10 6 0 11
-4 11 -10z m10 -30 c0 -5 -4 -10 -10 -10 -5 0 -10 5 -10 10 0 6 5 10 10 10 6
0 10 -4 10 -10z m10 -40 c0 -5 -5 -10 -11 -10 -5 0 -7 5 -4 10 3 6 8 10 11 10
2 0 4 -4 4 -10z m-1166 -136 c3 -8 2 -12 -4 -9 -6 3 -10 10 -10 16 0 14 7 11
14 -7z m151 6 c17 -7 15 -9 -12 -9 -18 -1 -33 4 -33 9 0 12 17 12 45 0z m4189
-31 c10 -13 26 -108 31 -189 6 -97 24 -167 76 -301 20 -53 27 -85 23 -106 -3
-17 1 -55 9 -84 8 -31 15 -99 15 -160 0 -87 5 -119 26 -180 14 -42 26 -88 26
-103 l0 -27 -164 3 c-137 2 -166 6 -168 18 -4 15 0 788 5 980 1 58 5 110 9
115 3 6 4 18 2 28 -2 17 3 18 52 14 30 -2 56 -6 58 -8z m-4503 -122 c-10 -9
-11 -8 -5 6 3 10 9 15 12 12 3 -3 0 -11 -7 -18z m42 -60 c20 -7 22 -28 5 -45
-9 -9 -8 -12 4 -12 9 0 18 6 21 14 4 10 14 13 33 7 23 -6 27 -13 28 -44 1 -20
-2 -38 -5 -40 -4 -1 -1 -25 6 -52 8 -28 13 -87 12 -132 -1 -45 1 -79 6 -76 4
2 7 -3 7 -12 0 -9 -4 -14 -8 -11 -5 3 -5 -17 1 -45 7 -34 6 -67 -1 -102 -30
-144 -33 -182 -22 -249 10 -66 7 -254 -6 -370 -5 -42 -3 -58 6 -58 9 0 10 -31
7 -125 -4 -103 -2 -125 9 -125 8 0 14 -4 14 -9 0 -5 3 -22 6 -38 5 -26 2 -31
-18 -36 -21 -6 -23 -11 -19 -53 2 -34 6 -43 13 -33 7 10 8 5 3 -16 -3 -16 -13
-36 -22 -43 -15 -11 -15 -12 2 -12 17 0 17 -1 -1 -18 -16 -14 -19 -25 -13 -62
4 -25 3 -49 -2 -54 -6 -6 -9 -3 -9 8 0 9 -5 14 -10 11 -6 -4 -8 -10 -5 -15 3
-4 8 -74 11 -155 4 -115 3 -145 -7 -139 -7 4 -10 3 -6 -3 4 -6 -3 -32 -14 -58
-12 -26 -19 -59 -17 -74 2 -15 -1 -33 -6 -39 -27 -29 -33 -39 -30 -60 3 -14
-4 -25 -17 -33 -21 -11 -21 -9 -15 26 6 32 5 37 -15 42 -21 6 -21 7 -3 20 16
12 18 29 17 186 -1 94 -4 189 -8 209 -4 21 -4 50 -1 64 6 21 9 24 21 14 12
-10 15 -8 16 11 2 39 -2 54 -17 62 -16 9 -19 37 -4 37 11 0 13 30 4 54 -3 9
-15 16 -25 16 -21 0 -24 11 -8 27 7 7 8 20 3 34 -4 13 -7 28 -6 32 1 5 -2 6
-8 2 -5 -3 -10 -20 -10 -36 0 -37 -16 -30 -22 9 -4 27 11 52 30 52 11 0 23 40
16 52 -10 16 -26 7 -21 -12 4 -15 0 -20 -14 -20 -11 0 -19 7 -19 16 0 8 4 12
10 9 5 -3 7 0 4 8 -2 7 -1 32 4 55 6 23 6 42 1 44 -5 2 -12 38 -15 81 -4 43
-11 80 -15 83 -5 3 -9 12 -9 20 0 8 -9 23 -21 35 -15 15 -24 18 -34 9 -10 -8
-14 -8 -18 2 -2 7 -8 9 -13 5 -5 -5 -1 -14 9 -21 12 -9 17 -25 16 -52 -2 -30
-3 -33 -6 -11 -2 15 -11 27 -19 27 -9 0 -14 11 -14 30 0 28 -2 29 -26 20 -23
-9 -25 -8 -19 10 4 11 2 20 -4 20 -14 0 -14 37 -1 45 6 4 8 10 5 15 -3 5 6
101 20 212 14 112 28 224 31 251 3 26 9 47 13 47 5 0 11 33 14 73 16 179 20
204 39 237 14 24 20 55 22 107 1 39 5 75 8 78 4 4 4 14 1 23 -4 8 -2 13 3 9
12 -7 9 -164 -5 -199 -5 -14 -6 -39 -2 -55 l8 -28 8 25 c4 14 14 29 21 35 7 5
15 33 18 60 7 76 22 154 29 161 16 16 18 -32 3 -78 -9 -28 -16 -57 -16 -64 0
-21 43 -17 57 4 9 15 8 21 -8 33 -22 16 -25 29 -5 29 9 0 16 16 20 43 9 59 8
62 -19 60 -17 -1 -22 3 -18 13 3 8 0 14 -7 14 -10 0 -10 3 0 15 11 13 14 13
29 -3 9 -10 24 -21 34 -25z m-123 -9 c0 -16 -3 -19 -11 -11 -6 6 -8 16 -5 22
11 17 16 13 16 -11z m434 -52 c-4 -34 -13 -60 -20 -63 -8 -3 -14 -9 -14 -15 0
-5 5 -6 10 -3 13 8 13 -31 -1 -56 -6 -12 -12 -41 -14 -66 -2 -26 -8 -49 -12
-52 -5 -3 -10 -51 -12 -106 -2 -55 -6 -104 -10 -110 -3 -5 -7 -32 -7 -60 -1
-27 -3 -63 -4 -80 -2 -29 -2 -29 -9 -5 -4 14 -6 41 -5 60 2 19 5 64 8 100 3
36 8 99 11 140 3 41 10 100 16 130 6 30 12 66 14 80 3 38 16 83 31 105 8 11
14 30 14 44 0 13 2 22 5 19 3 -3 2 -31 -1 -62z m-1104 -21 c0 -8 -4 -15 -10
-15 -5 0 -10 7 -10 15 0 8 5 15 10 15 6 0 10 -7 10 -15z m4514 -42 c3 -21 7
-83 10 -138 l5 -100 -19 105 c-21 117 -24 170 -11 170 5 0 12 -17 15 -37z
m-123 -223 l16 -90 -27 0 c-48 0 -65 77 -33 145 9 19 19 35 23 35 3 0 13 -40
21 -90z m-4136 -19 c3 -5 1 -12 -5 -16 -5 -3 -10 1 -10 9 0 18 6 21 15 7z
m4282 -48 c-3 -10 -5 -2 -5 17 0 19 2 27 5 18 2 -10 2 -26 0 -35z m23 -43 c-9
-6 -9 -9 1 -13 10 -4 9 -6 -3 -6 -12 -1 -18 6 -18 19 0 14 5 18 16 13 11 -4
12 -8 4 -13z m5 -50 c3 -5 1 -10 -4 -10 -6 0 -11 5 -11 10 0 6 2 10 4 10 3 0
8 -4 11 -10z m46 -96 l34 -15 -39 5 c-22 3 -44 10 -50 16 -16 16 16 13 55 -6z
m28 -73 c16 -26 33 -67 36 -92 4 -24 8 -55 11 -68 4 -19 2 -22 -12 -17 -15 6
-16 0 -10 -56 4 -35 9 -78 13 -96 5 -32 5 -33 -23 -26 -16 4 -30 8 -32 9 -2 2
-61 383 -62 401 0 1 11 -1 24 -3 15 -3 36 -23 55 -52z m-3667 -53 c-9 -9 -12
-7 -12 12 0 19 3 21 12 12 9 -9 9 -15 0 -24z m11 -118 c3 -11 1 -18 -4 -14 -5
3 -9 12 -9 20 0 20 7 17 13 -6z m3870 -75 c4 -8 2 -17 -3 -20 -6 -4 -10 3 -10
14 0 25 6 27 13 6z m-4983 -25 c0 -5 -4 -10 -10 -10 -5 0 -10 5 -10 10 0 6 5
10 10 10 6 0 10 -4 10 -10z m1097 -66 c-7 -51 -17 -54 -17 -6 0 24 5 42 11 42
6 0 9 -14 6 -36z m-25 -313 c-21 -146 -42 -176 -42 -58 0 60 4 77 19 91 18 16
20 31 22 140 0 62 14 67 16 6 2 -30 -5 -111 -15 -179z m-1012 189 c0 -5 -4
-10 -10 -10 -5 0 -10 5 -10 10 0 6 5 10 10 10 6 0 10 -4 10 -10z m216 -27
c-10 -10 -19 5 -10 18 6 11 8 11 12 0 2 -7 1 -15 -2 -18z m4691 -85 c-2 -18
-4 -4 -4 32 0 36 2 50 4 33 2 -18 2 -48 0 -65z m-4997 78 c0 -3 -4 -8 -10 -11
-5 -3 -10 -1 -10 4 0 6 5 11 10 11 6 0 10 -2 10 -4z m-17 -117 c-5 -18 -15
-35 -22 -37 -10 -3 -12 6 -7 39 4 24 13 55 19 68 l12 25 3 -31 c2 -17 -1 -46
-5 -64z m707 45 c0 -8 -6 -14 -14 -14 -18 0 -29 27 -13 33 16 6 27 -1 27 -19z
m4937 -16 c-3 -7 -5 -2 -5 12 0 14 2 19 5 13 2 -7 2 -19 0 -25z m-310 -15 c-3
-10 -5 -4 -5 12 0 17 2 24 5 18 2 -7 2 -21 0 -30z m911 -14 c3 -11 2 -11 -7 1
-7 10 -11 11 -11 3 0 -7 -4 -13 -10 -13 -5 0 -7 7 -3 15 7 19 25 15 31 -6z
m102 7 c0 -9 -40 -13 -46 -5 -3 5 6 9 20 9 14 0 26 -2 26 -4z m180 -8 c0 -9
-89 -8 -115 2 -12 5 6 8 48 7 37 -1 67 -5 67 -9z m-1377 -25 c-7 -2 -21 -2
-30 0 -10 3 -4 5 12 5 17 0 24 -2 18 -5z m199 -6 c43 -7 28 -19 -16 -13 -27 3
-72 6 -100 6 -34 0 -46 3 -37 9 13 8 95 7 153 -2z m-5377 -143 c-49 -359 -84
-545 -84 -444 0 62 72 540 84 560 16 25 16 -3 0 -116z m5699 -18 c-3 -9 -10
-16 -16 -16 -5 0 -6 -5 -2 -12 5 -7 2 -9 -9 -5 -11 4 -14 2 -10 -9 3 -7 1 -14
-5 -14 -6 0 -13 6 -15 13 -4 7 -6 6 -6 -4 -1 -21 -31 -34 -31 -14 0 13 91 88
98 81 1 -2 0 -11 -4 -20z m423 -8 c-3 -8 -6 -5 -6 6 -1 11 2 17 5 13 3 -3 4
-12 1 -19z m-631 -28 l28 -11 -27 -27 -27 -26 -30 29 c-16 16 -30 32 -30 37 0
11 54 10 86 -2z m-6 -114 c-5 -5 -21 -4 -42 5 -18 7 -38 13 -45 11 -23 -5 -40
62 -21 86 8 9 23 0 64 -40 33 -32 50 -56 44 -62z m567 108 c-3 -3 -12 -4 -19
-1 -8 3 -5 6 6 6 11 1 17 -2 13 -5z m-464 -24 c-3 -11 -9 -17 -14 -15 -10 7
-1 35 11 35 5 0 6 -9 3 -20z m424 14 c-3 -3 -12 -4 -19 -1 -8 3 -5 6 6 6 11 1
17 -2 13 -5z m110 -66 c-3 -8 -6 -5 -6 6 -1 11 2 17 5 13 3 -3 4 -12 1 -19z
m-5783 -90 c-3 -18 -14 -77 -25 -130 -10 -53 -16 -103 -13 -111 3 -8 1 -18 -4
-21 -21 -12 -20 26 4 150 13 71 24 132 24 137 0 4 4 7 10 7 5 0 7 -14 4 -32z
m586 -68 c0 -5 -5 -10 -11 -10 -5 0 -7 5 -4 10 3 6 8 10 11 10 2 0 4 -4 4 -10z
m4300 -25 c11 -13 10 -14 -4 -9 -9 3 -16 10 -16 15 0 13 6 11 20 -6z m-4325
-43 c-8 -8 -25 10 -25 26 0 13 2 13 14 -4 8 -10 13 -21 11 -22z m4381 14 c10
-8 16 -17 13 -20 -3 -4 -17 2 -30 13 -27 23 -13 28 17 7z m-4346 -6 c0 -5 -5
-10 -11 -10 -5 0 -7 5 -4 10 3 6 8 10 11 10 2 0 4 -4 4 -10z m4307 -11 c26
-11 56 -29 66 -40 15 -16 22 -18 33 -8 13 10 11 15 -13 30 -36 24 -20 24 48 0
68 -23 157 -37 319 -51 69 -6 173 -18 232 -25 97 -13 141 -12 207 6 22 6 24
-19 2 -31 -12 -6 -21 -17 -21 -24 0 -32 -73 -30 -324 9 -55 8 -129 15 -165 15
-36 0 -95 5 -131 11 -128 20 -297 85 -308 118 -5 15 -1 14 55 -10z m1042 -36
c3 -2 -1 -9 -7 -15 -15 -15 -124 2 -130 20 -3 10 11 11 65 6 37 -4 70 -8 72
-11z m-984 -39 c56 -26 190 -52 300 -59 61 -3 142 -11 180 -16 198 -27 297
-37 316 -32 36 10 17 -20 -20 -31 -24 -7 -77 -2 -199 17 -92 15 -223 31 -292
36 -144 12 -220 30 -306 71 -73 35 -111 70 -48 44 22 -9 53 -22 69 -30z
m-5389 -141 c-11 -29 -17 -6 -9 33 7 36 8 37 11 11 2 -16 1 -36 -2 -44z m5932
-28 c-3 -3 -9 2 -12 12 -6 14 -5 15 5 6 7 -7 10 -15 7 -18z m-5541 -7 c-3 -8
-6 -5 -6 6 -1 11 2 17 5 13 3 -3 4 -12 1 -19z m5733 -5 c0 -9 -14 -13 -40 -13
-25 0 -40 5 -40 13 0 8 -4 7 -10 -3 -8 -13 -10 -12 -10 3 0 15 8 18 50 16 34
-2 50 -7 50 -16z m-5789 -56 c-13 -13 -15 21 -3 50 6 15 8 13 10 -11 2 -16 -1
-33 -7 -39z m409 15 c0 -9 7 -26 15 -36 19 -26 19 -42 0 -26 -13 10 -15 9 -15
-8 0 -14 5 -20 14 -16 11 4 13 0 9 -18 -4 -13 -2 -20 3 -15 5 5 9 13 9 18 0
23 20 11 25 -15 3 -16 11 -31 19 -34 9 -3 11 1 7 16 -4 12 0 34 9 52 17 32 23
37 22 18 -1 -37 4 -47 19 -41 28 10 11 -21 -19 -35 -29 -14 -35 -28 -14 -35 9
-3 9 -8 -2 -21 -8 -9 -11 -19 -8 -22 3 -3 2 -18 -2 -32 -5 -15 -5 -36 0 -47 6
-17 8 -17 8 -2 1 11 9 17 24 17 20 0 24 -5 24 -30 0 -16 -4 -27 -9 -24 -4 3
-8 -6 -8 -20 0 -14 5 -26 10 -26 6 0 10 -4 10 -10 0 -6 -43 -10 -112 -9 -62 1
-105 3 -95 6 18 5 25 35 6 30 -6 -1 -13 16 -16 38 -2 21 -6 41 -8 44 -7 6 16
31 27 31 6 0 8 -9 5 -20 -3 -11 -2 -20 3 -20 12 0 18 35 9 52 -4 8 -3 33 2 57
7 33 6 45 -5 57 -8 8 -17 10 -21 5 -3 -5 -1 -12 5 -16 12 -7 14 -25 3 -25 -5
0 -13 12 -20 26 -10 22 -9 31 5 53 9 14 20 28 24 31 7 6 16 39 17 68 1 19 21
4 21 -16z m3065 18 c3 -5 1 -10 -4 -10 -6 0 -11 5 -11 10 0 6 2 10 4 10 3 0 8
-4 11 -10z m-95 -50 c0 -5 -4 -10 -10 -10 -5 0 -10 5 -10 10 0 6 5 10 10 10 6
0 10 -4 10 -10z m-3097 -122 c-15 -136 -16 -138 -43 -131 -19 5 -21 11 -16 47
3 23 9 70 12 106 7 69 17 90 43 90 15 0 16 -9 4 -112z m622 85 c31 -34 32 -71
3 -109 -39 -51 -69 -66 -53 -27 4 10 6 46 5 80 -1 56 4 83 15 83 2 0 16 -12
30 -27z m-353 -15 c-7 -7 -12 -8 -12 -2 0 14 12 26 19 19 2 -3 -1 -11 -7 -17z
m-188 -103 c-4 -8 -10 -15 -15 -15 -4 0 -6 7 -3 15 4 8 10 15 15 15 4 0 6 -7
3 -15z m186 -39 c0 -8 -4 -18 -10 -21 -5 -3 -10 3 -10 14 0 12 5 21 10 21 6 0
10 -6 10 -14z m90 -35 c0 -6 -4 -13 -10 -16 -5 -3 -10 1 -10 9 0 9 5 16 10 16
6 0 10 -4 10 -9z m9 -58 c9 -17 10 -17 28 0 25 22 43 22 43 0 0 -13 3 -14 12
-5 16 16 28 15 28 -3 0 -8 -5 -15 -10 -15 -6 0 -8 -13 -5 -30 5 -29 4 -30 -32
-29 -37 1 -38 1 -10 11 15 5 27 14 27 19 0 16 -32 23 -50 11 -14 -9 -19 -8
-24 3 -3 8 -12 15 -21 15 -8 0 -15 9 -15 20 0 25 16 26 29 3z m-356 -13 c-3
-12 -8 -19 -11 -16 -5 6 5 36 12 36 2 0 2 -9 -1 -20z m329 -52 c-6 -6 -16 -7
-22 -3 -9 6 -9 9 1 16 17 10 34 0 21 -13z"/>
<path d="M2641 3944 c0 -11 3 -14 6 -6 3 7 2 16 -1 19 -3 4 -6 -2 -5 -13z"/>
<path d="M1184 2191 c-7 -32 -8 -33 -21 -15 -12 16 -13 15 -7 -16 3 -19 7 -41
10 -47 2 -7 0 -13 -4 -13 -12 0 -31 -102 -25 -133 5 -23 9 -26 30 -21 26 7 73
48 73 65 0 5 7 12 15 15 19 8 19 19 -1 38 -13 13 -14 22 -6 46 9 25 8 30 -8
35 -11 3 -17 12 -14 19 3 7 -4 24 -15 37 l-20 24 -7 -34z"/>
<path d="M1081 1800 c0 -8 4 -24 9 -35 5 -13 9 -14 9 -5 0 8 -4 24 -9 35 -5
13 -9 14 -9 5z"/>
<path d="M1101 1714 c0 -11 3 -14 6 -6 3 7 2 16 -1 19 -3 4 -6 -2 -5 -13z"/>
<path d="M1077 1678 c-5 -18 3 -48 14 -48 5 0 9 14 9 30 0 30 -15 41 -23 18z"/>
<path d="M1186 1588 c-18 -25 -21 -65 -7 -87 10 -16 15 -3 25 72 6 43 3 45
-18 15z"/>
<path d="M1333 1583 c4 -18 1 -23 -15 -23 -14 0 -18 5 -14 15 3 8 1 15 -4 15
-6 0 -10 -7 -10 -16 0 -14 -3 -14 -15 -4 -13 10 -15 9 -15 -9 0 -16 6 -21 26
-21 15 0 35 -10 45 -22 15 -16 19 -18 19 -5 0 8 6 22 13 29 11 11 9 17 -11 38
-24 25 -24 25 -19 3z"/>
<path d="M1320 1479 c0 -5 5 -7 10 -4 6 3 10 8 10 11 0 2 -4 4 -10 4 -5 0 -10
-5 -10 -11z"/>
<path d="M1181 1404 c0 -11 3 -14 6 -6 3 7 2 16 -1 19 -3 4 -6 -2 -5 -13z"/>
<path d="M1240 1128 c0 -4 9 -8 20 -8 11 0 20 4 20 9 0 6 -9 9 -20 8 -11 -1
-20 -5 -20 -9z"/>
<path d="M1220 1104 c0 -8 5 -12 10 -9 6 4 8 11 5 16 -9 14 -15 11 -15 -7z"/>
<path d="M1260 1034 c0 -8 5 -12 10 -9 6 4 8 11 5 16 -9 14 -15 11 -15 -7z"/>
<path d="M1261 994 c0 -11 3 -14 6 -6 3 7 2 16 -1 19 -3 4 -6 -2 -5 -13z"/>
<path d="M1250 904 c0 -8 5 -12 10 -9 6 4 8 11 5 16 -9 14 -15 11 -15 -7z"/>
<path d="M1301 684 c0 -11 3 -14 6 -6 3 7 2 16 -1 19 -3 4 -6 -2 -5 -13z"/>
<path d="M1336 473 c9 -38 14 -42 14 -10 0 14 -5 29 -10 32 -7 4 -8 -3 -4 -22z"/>
<path d="M1290 446 c0 -25 -5 -57 -10 -71 -6 -16 -7 -33 -1 -42 7 -14 10 -13
15 5 4 12 4 26 1 32 -3 5 -2 10 4 10 5 0 12 -6 14 -12 4 -10 8 -9 16 2 6 8 11
20 11 25 0 6 -5 3 -10 -5 -8 -12 -10 -9 -10 13 0 15 -5 27 -11 27 -8 0 -8 5 1
15 13 16 7 45 -10 45 -5 0 -10 -20 -10 -44z"/>
<path d="M1277 280 c3 -11 7 -20 8 -20 1 0 5 9 8 20 3 12 0 20 -8 20 -8 0 -11
-8 -8 -20z"/>
<path d="M1281 224 c0 -11 3 -14 6 -6 3 7 2 16 -1 19 -3 4 -6 -2 -5 -13z"/>
<path d="M920 106 c0 -9 5 -16 10 -16 6 0 10 4 10 9 0 6 -4 13 -10 16 -5 3
-10 -1 -10 -9z"/>
<path d="M3071 5997 c-34 -12 -54 -37 -30 -37 7 0 20 -7 29 -15 15 -13 19 -12
40 10 13 14 20 31 17 39 -7 19 -11 19 -56 3z"/>
<path d="M3235 5990 c-3 -5 -1 -10 4 -10 6 0 11 -8 11 -17 0 -14 -2 -15 -9 -5
-7 11 -11 11 -24 -2 -8 -9 -20 -16 -26 -16 -6 0 -11 -5 -11 -11 0 -5 -5 -7
-11 -3 -7 4 -10 2 -7 -6 2 -7 22 -18 43 -26 51 -18 60 -17 45 1 -17 21 -4 32
20 17 25 -15 43 -16 34 0 -4 7 -3 8 4 4 7 -4 12 -28 12 -54 1 -38 3 -43 11
-29 6 10 8 25 5 33 -3 8 0 24 7 35 10 18 9 23 -7 33 -11 6 -34 23 -51 39 -36
30 -41 32 -50 17z"/>
<path d="M1172 5973 c-7 -2 -17 -13 -22 -24 -8 -15 -7 -17 5 -13 8 4 15 10 15
16 0 5 5 6 11 2 6 -3 9 -17 6 -31 -6 -32 15 -24 28 11 7 21 6 29 -5 36 -16 11
-19 11 -38 3z"/>
<path d="M1246 5961 c-4 -7 -5 -15 -2 -18 9 -9 19 4 14 18 -4 11 -6 11 -12 0z"/>
<path d="M1142 5878 c1 -18 -6 -45 -15 -59 l-17 -26 44 -1 c44 -2 45 -2 41 28
-5 39 -13 52 -27 44 -7 -5 -9 2 -4 20 5 20 3 26 -9 26 -11 0 -15 -9 -13 -32z"/>
<path d="M2020 5896 c0 -2 7 -7 16 -10 8 -3 12 -2 9 4 -6 10 -25 14 -25 6z"/>
<path d="M2400 5889 c0 -5 5 -7 10 -4 6 3 10 8 10 11 0 2 -4 4 -10 4 -5 0 -10
-5 -10 -11z"/>
<path d="M1225 5860 c3 -5 11 -10 16 -10 6 0 7 5 4 10 -3 6 -11 10 -16 10 -6
0 -7 -4 -4 -10z"/>
<path d="M2637 5836 c4 -21 1 -26 -15 -26 -26 0 -52 -10 -52 -20 0 -5 21 -15
46 -24 l46 -15 -6 46 c-3 25 -9 50 -14 55 -6 6 -8 -1 -5 -16z"/>
<path d="M2699 5798 c-12 -43 1 -79 15 -42 9 24 7 44 -4 44 -5 0 -10 -1 -11
-2z"/>
<path d="M2037 5763 c-4 -3 -7 -11 -7 -17 0 -6 5 -5 12 2 6 6 9 14 7 17 -3 3
-9 2 -12 -2z"/>
<path d="M883 5707 c-4 -8 -26 -27 -47 -41 -22 -15 -66 -51 -98 -80 -55 -51
-58 -57 -58 -100 0 -40 4 -48 25 -58 14 -6 25 -19 25 -29 0 -9 7 -20 16 -23
29 -11 37 -6 20 13 -13 14 -15 29 -11 62 11 81 15 90 33 87 12 -2 18 5 20 27
4 31 29 68 42 60 4 -3 10 3 13 14 3 14 11 17 34 14 27 -4 31 -1 36 24 3 15 5
29 4 29 -15 12 -47 12 -54 1z"/>
<path d="M2130 5698 c-24 -20 -24 -21 -3 -16 12 3 30 0 40 -7 18 -13 43 -10
43 6 0 5 -5 9 -12 9 -6 0 -19 6 -27 14 -14 13 -19 12 -41 -6z"/>
<path d="M2690 5710 c0 -5 7 -7 15 -4 8 4 15 8 15 10 0 2 -7 4 -15 4 -8 0 -15
-4 -15 -10z"/>
<path d="M2710 5693 c-32 -20 -40 -28 -27 -31 21 -4 22 -22 2 -48 -19 -25 -19
-40 0 -24 22 19 24 11 12 -48 -9 -44 -9 -55 5 -68 15 -15 18 -15 42 2 16 12
28 33 32 56 5 26 10 35 21 31 12 -5 13 1 7 33 -3 22 -10 43 -15 49 -5 5 -9 16
-9 25 0 9 -6 24 -12 33 -12 15 -17 15 -58 -10z m40 3 c0 -3 -4 -8 -10 -11 -5
-3 -10 -1 -10 4 0 6 5 11 10 11 6 0 10 -2 10 -4z"/>
<path d="M2255 5670 c-7 -11 12 -50 25 -50 5 0 4 13 -1 30 -12 33 -15 35 -24
20z"/>
<path d="M2032 5648 c-31 -31 0 -38 38 -8 l25 20 -25 0 c-15 0 -31 -5 -38 -12z"/>
<path d="M2108 5653 c7 -3 16 -2 19 1 4 3 -2 6 -13 5 -11 0 -14 -3 -6 -6z"/>
<path d="M1068 5593 c7 -3 16 -2 19 1 4 3 -2 6 -13 5 -11 0 -14 -3 -6 -6z"/>
<path d="M2285 5590 c3 -5 13 -10 21 -10 8 0 12 5 9 10 -3 6 -13 10 -21 10 -8
0 -12 -4 -9 -10z"/>
<path d="M1029 5493 c-57 -42 -97 -79 -90 -81 14 -5 87 44 95 64 3 8 12 14 20
14 10 0 13 -6 9 -16 -5 -15 0 -16 40 -10 l47 7 0 -47 c0 -61 7 -53 24 27 11
54 11 68 -1 92 -7 15 -20 27 -27 27 -8 0 -61 -35 -117 -77z m135 13 c-3 -15
-8 -25 -11 -23 -2 3 -1 17 3 31 3 15 8 25 11 23 2 -3 1 -17 -3 -31z"/>
<path d="M1588 5514 c-3 -5 -2 -19 1 -30 5 -18 8 -19 18 -9 9 10 9 17 -1 30
-7 10 -15 14 -18 9z"/>
<path d="M2217 5493 c-4 -3 -7 -14 -7 -24 0 -33 -22 -70 -35 -59 -9 8 -11 4
-8 -15 4 -20 11 -24 37 -23 29 1 32 4 28 25 -3 14 0 23 8 23 9 0 7 8 -5 26 -9
14 -14 32 -11 40 6 15 3 18 -7 7z"/>
<path d="M2577 5476 c-16 -13 -16 -14 7 -30 14 -9 41 -16 61 -16 19 0 35 -4
35 -10 0 -5 -12 -10 -27 -10 -28 0 -28 0 7 -18 27 -14 37 -15 43 -5 6 10 15
10 42 -2 19 -7 35 -12 35 -9 0 3 -20 13 -45 24 -25 11 -45 23 -45 28 0 11 -50
47 -75 55 -11 3 -28 0 -38 -7z m58 -26 c3 -6 -1 -7 -9 -4 -18 7 -21 14 -7 14
6 0 13 -4 16 -10z"/>
<path d="M2147 5447 c-3 -8 0 -14 7 -14 7 0 13 6 13 14 0 7 -4 13 -8 13 -4 0
-9 -6 -12 -13z"/>
<path d="M1045 5421 c-11 -35 -120 -138 -160 -151 -35 -12 -37 -14 -21 -26 23
-17 10 -64 -23 -80 -14 -7 -19 -14 -12 -18 14 -9 -9 -55 -44 -90 -28 -28 -34
-76 -10 -76 8 0 24 -13 37 -30 12 -16 26 -30 31 -30 4 0 -1 12 -13 27 -29 37
-23 86 23 193 28 65 164 171 242 191 23 5 25 7 8 8 -27 1 -40 39 -24 69 15 28
14 32 -8 32 -11 0 -22 -9 -26 -19z"/>
<path d="M2598 5403 c7 -3 16 -2 19 1 4 3 -2 6 -13 5 -11 0 -14 -3 -6 -6z"/>
<path d="M1660 5370 c-9 -6 -10 -10 -3 -10 6 0 15 5 18 10 8 12 4 12 -15 0z"/>
<path d="M1320 4977 c-10 -21 -11 -30 -2 -39 20 -20 36 5 24 39 l-9 28 -13
-28z"/>
<path d="M3517 4879 c-17 -10 -53 -69 -41 -69 4 0 1 -6 -5 -14 -17 -21 -40
-197 -39 -301 0 -40 2 -34 10 30 8 77 17 96 52 108 8 3 7 11 -1 26 -18 30 -17
33 23 60 30 21 37 22 45 10 7 -11 9 -9 9 8 0 24 -15 39 -25 23 -12 -20 -21 -9
-21 24 1 19 4 32 7 30 10 -6 18 36 11 56 -5 14 -11 16 -25 9z m-37 -219 c0 -5
-7 -10 -15 -10 -8 0 -15 5 -15 10 0 6 7 10 15 10 8 0 15 -4 15 -10z"/>
<path d="M3557 4820 c-3 -11 -3 -20 -1 -20 2 0 8 9 14 20 6 11 7 20 2 20 -6 0
-12 -9 -15 -20z"/>
<path d="M1663 4793 c0 -24 4 -28 29 -28 15 0 28 3 28 8 0 4 -4 7 -9 7 -5 0
-7 9 -4 20 4 16 0 20 -19 20 -20 0 -25 -5 -25 -27z"/>
<path d="M1650 4735 c0 -17 36 -38 53 -31 8 3 7 5 -2 5 -11 1 -10 6 4 21 18
20 17 20 -18 20 -26 0 -37 -4 -37 -15z"/>
<path d="M1675 4680 c3 -5 13 -10 21 -10 8 0 14 5 14 10 0 6 -9 10 -21 10 -11
0 -17 -4 -14 -10z"/>
<path d="M1685 4560 c-3 -5 -1 -10 4 -10 6 0 11 5 11 10 0 6 -2 10 -4 10 -3 0
-8 -4 -11 -10z"/>
<path d="M1583 4485 c0 -22 2 -30 4 -17 2 12 2 30 0 40 -3 9 -5 -1 -4 -23z"/>
<path d="M1547 4478 c7 -46 13 -48 13 -5 0 21 -4 37 -9 37 -5 0 -7 -15 -4 -32z"/>
<path d="M590 4470 c0 -5 12 -10 26 -10 14 0 23 4 19 10 -3 6 -15 10 -26 10
-10 0 -19 -4 -19 -10z"/>
<path d="M546 4445 c4 -8 8 -15 10 -15 2 0 4 7 4 15 0 8 -4 15 -10 15 -5 0 -7
-7 -4 -15z"/>
<path d="M405 4430 c3 -5 8 -10 11 -10 2 0 4 5 4 10 0 6 -5 10 -11 10 -5 0 -7
-4 -4 -10z"/>
<path d="M476 4431 c-4 -5 -3 -16 0 -25 5 -13 9 -14 20 -5 8 6 14 18 14 25 0
16 -26 19 -34 5z"/>
<path d="M700 4420 c0 -5 5 -10 11 -10 5 0 7 5 4 10 -3 6 -8 10 -11 10 -2 0
-4 -4 -4 -10z"/>
<path d="M334 4409 c-3 -6 0 -15 7 -20 13 -7 28 5 29 24 0 11 -28 8 -36 -4z"/>
<path d="M643 4413 c-18 -6 -16 -42 2 -49 8 -4 12 -10 9 -15 -10 -17 7 -31 22
-18 10 8 14 8 14 0 0 -6 -4 -11 -10 -11 -12 0 -13 -27 -2 -34 4 -2 14 -1 21 3
17 11 6 45 -22 73 -12 11 -16 17 -9 13 12 -6 12 -3 2 16 -16 29 -13 27 -27 22z"/>
<path d="M1467 4413 c-14 -13 -6 -23 18 -23 16 0 25 6 25 15 0 15 -31 21 -43
8z"/>
<path d="M3373 4413 c37 -2 96 -2 130 0 34 2 4 3 -68 3 -71 0 -99 -1 -62 -3z"/>
<path d="M420 4403 c0 -4 5 -15 10 -23 8 -13 10 -13 10 2 0 9 -4 20 -10 23 -5
3 -10 3 -10 -2z"/>
<path d="M565 4400 c3 -5 8 -10 11 -10 2 0 4 5 4 10 0 6 -5 10 -11 10 -5 0 -7
-4 -4 -10z"/>
<path d="M1580 4400 c-11 -7 -7 -10 18 -10 17 0 32 5 32 10 0 13 -30 13 -50 0z"/>
<path d="M3633 4403 c9 -2 25 -2 35 0 9 3 1 5 -18 5 -19 0 -27 -2 -17 -5z"/>
<path d="M35 4390 c3 -5 10 -10 16 -10 5 0 9 5 9 10 0 6 -7 10 -16 10 -8 0
-12 -4 -9 -10z"/>
<path d="M1660 4390 c0 -5 5 -10 10 -10 6 0 10 5 10 10 0 6 -4 10 -10 10 -5 0
-10 -4 -10 -10z"/>
<path d="M1710 4390 c0 -5 9 -10 20 -10 11 0 20 5 20 10 0 6 -9 10 -20 10 -11
0 -20 -4 -20 -10z"/>
<path d="M1780 4391 c0 -6 5 -13 10 -16 6 -3 10 1 10 9 0 9 -4 16 -10 16 -5 0
-10 -4 -10 -9z"/>
<path d="M1830 4386 c0 -10 8 -16 22 -16 12 0 19 1 17 3 -2 1 -12 9 -21 16
-15 12 -18 11 -18 -3z"/>
<path d="M276 4375 c-3 -9 0 -15 9 -15 16 0 20 16 6 24 -5 3 -11 -1 -15 -9z"/>
<path d="M515 4381 c-3 -6 -11 -9 -16 -6 -5 4 -9 2 -9 -4 0 -18 17 -21 30 -6
7 9 10 18 7 21 -3 3 -8 0 -12 -5z"/>
<path d="M720 4379 c0 -5 5 -7 10 -4 6 3 10 8 10 11 0 2 -4 4 -10 4 -5 0 -10
-5 -10 -11z"/>
<path d="M801 4373 c-16 -17 -12 -23 11 -14 10 3 14 11 10 17 -5 9 -11 8 -21
-3z"/>
<path d="M3340 4355 c0 -26 3 -33 15 -29 18 7 20 21 3 26 -28 10 7 28 49 26
35 -1 47 -6 53 -22 8 -19 9 -18 9 7 1 27 0 27 -64 27 l-65 0 0 -35z"/>
<path d="M355 4370 c-3 -5 -1 -19 6 -31 10 -19 12 -20 26 -6 9 9 13 23 10 31
-7 18 -32 21 -42 6z"/>
<path d="M580 4369 c0 -9 7 -22 15 -29 19 -16 19 0 0 26 -12 16 -14 16 -15 3z"/>
<path d="M0 4354 c0 -5 7 -18 15 -28 8 -11 15 -16 15 -10 0 5 -7 18 -15 28 -8
11 -15 16 -15 10z"/>
<path d="M226 4347 c-16 -12 -16 -14 -2 -26 9 -8 16 -22 16 -33 0 -10 7 -21
15 -24 8 -4 13 -9 11 -13 -9 -14 12 -34 29 -27 19 7 14 33 -5 28 -8 -2 -10 3
-7 13 10 24 -2 43 -31 50 -19 5 -22 9 -13 15 7 4 12 13 10 19 -3 8 -9 8 -23
-2z"/>
<path d="M309 4329 c4 -13 14 -25 20 -27 10 -3 10 0 2 16 -16 30 -33 38 -22
11z"/>
<path d="M445 4340 c-3 -5 -1 -10 4 -10 6 0 11 5 11 10 0 6 -2 10 -4 10 -3 0
-8 -4 -11 -10z"/>
<path d="M513 4335 c-3 -9 2 -24 11 -34 9 -10 16 -23 16 -31 0 -9 3 -10 13 -1
8 6 17 7 22 3 4 -4 6 0 3 8 -3 8 -13 13 -23 12 -16 -3 -17 -1 -6 12 7 9 11 23
7 31 -7 20 -35 19 -43 0z"/>
<path d="M83 4307 c-1 -11 -1 -18 0 -16 2 2 8 11 15 20 9 12 9 16 -1 16 -7 0
-14 -9 -14 -20z"/>
<path d="M167 4314 c-4 -4 0 -16 10 -26 9 -10 13 -18 8 -18 -4 0 -2 -7 5 -15
15 -18 50 -86 50 -98 0 -5 10 -21 21 -35 l21 -27 -7 25 c-4 14 -18 45 -32 69
-13 24 -21 51 -18 60 3 8 3 12 -1 9 -7 -8 -38 27 -45 50 -3 7 -8 10 -12 6z"/>
<path d="M390 4310 c-8 -5 -11 -12 -7 -16 4 -4 15 0 24 9 18 18 8 23 -17 7z"/>
<path d="M610 4319 c0 -17 33 -83 37 -73 2 7 -5 27 -16 45 -12 19 -21 31 -21
28z"/>
<path d="M470 4289 c7 -11 14 -19 16 -16 7 7 -7 37 -17 37 -6 0 -5 -9 1 -21z"/>
<path d="M3263 4276 c10 -8 13 -16 8 -17 -16 -6 -23 -109 -8 -109 8 0 11 15 8
46 -2 31 1 49 10 54 10 7 10 11 0 24 -8 9 -19 16 -25 16 -6 0 -3 -7 7 -14z"/>
<path d="M407 4274 c-14 -14 -7 -35 11 -32 9 2 17 10 17 17 0 16 -18 25 -28
15z"/>
<path d="M695 4260 c-3 -5 -2 -10 4 -10 5 0 13 5 16 10 3 6 2 10 -4 10 -5 0
-13 -4 -16 -10z"/>
<path d="M490 4251 c0 -6 4 -13 10 -16 6 -3 7 1 4 9 -7 18 -14 21 -14 7z"/>
<path d="M573 4253 c-7 -3 -13 -12 -13 -21 1 -26 27 -55 45 -49 22 9 18 26 -5
20 -11 -3 -20 0 -20 6 0 6 5 11 10 11 12 0 14 27 3 33 -5 2 -14 2 -20 0z"/>
<path d="M864 4245 c-17 -13 -17 -14 -2 -15 9 0 20 5 23 11 11 17 0 20 -21 4z"/>
<path d="M110 4242 c0 -13 31 -52 41 -52 6 0 8 4 4 9 -3 5 -1 13 5 16 8 5 7
11 -1 21 -12 15 -49 20 -49 6z"/>
<path d="M355 4231 c-3 -5 -1 -12 5 -16 5 -3 10 1 10 9 0 18 -6 21 -15 7z"/>
<path d="M720 4230 c-12 -7 -12 -12 -2 -22 9 -9 15 -9 24 0 16 16 -2 34 -22
22z"/>
<path d="M433 4223 c-7 -2 -13 -8 -13 -13 0 -12 33 -5 38 8 4 12 -4 14 -25 5z"/>
<path d="M510 4206 c0 -8 5 -18 10 -21 6 -3 10 3 10 14 0 12 -4 21 -10 21 -5
0 -10 -6 -10 -14z"/>
<path d="M302 4198 c-14 -14 -4 -38 14 -31 15 6 19 29 6 37 -5 3 -14 0 -20 -6z"/>
<path d="M70 4191 c0 -5 5 -13 10 -16 6 -3 10 -2 10 4 0 5 -4 13 -10 16 -5 3
-10 2 -10 -4z"/>
<path d="M666 4187 c3 -10 9 -15 12 -12 3 3 0 11 -7 18 -10 9 -11 8 -5 -6z"/>
<path d="M153 4183 c-21 -8 -14 -26 8 -20 18 5 18 3 7 -11 -12 -15 -11 -16 5
-3 32 25 18 50 -20 34z"/>
<path d="M438 4163 c5 -26 6 -27 32 -13 25 13 15 40 -14 38 -18 -2 -22 -7 -18
-25z"/>
<path d="M393 4138 c12 -24 20 -46 19 -50 -1 -5 3 -8 8 -8 14 0 13 13 -2 28
-7 7 -9 12 -4 12 4 0 -1 14 -11 30 -26 45 -34 36 -10 -12z"/>
<path d="M530 4161 c0 -5 5 -13 10 -16 6 -3 10 -2 10 4 0 5 -4 13 -10 16 -5 3
-10 2 -10 -4z"/>
<path d="M611 4161 c-7 -5 -11 -16 -9 -25 3 -15 5 -15 23 -2 22 16 10 41 -14
27z"/>
<path d="M90 4151 c0 -5 5 -13 10 -16 6 -3 10 -2 10 4 0 5 -4 13 -10 16 -5 3
-10 2 -10 -4z"/>
<path d="M326 4144 c-5 -14 -4 -15 9 -4 17 14 19 20 6 20 -5 0 -12 -7 -15 -16z"/>
<path d="M2486 4144 c-4 -9 -4 -19 -1 -22 3 -3 5 0 5 7 0 7 4 9 10 6 6 -3 7 1
4 9 -8 20 -10 20 -18 0z"/>
<path d="M2530 4141 c-5 -11 -10 -27 -10 -36 0 -10 -5 -15 -13 -12 -10 4 -13
-2 -9 -18 2 -13 -1 -40 -8 -60 -7 -20 -9 -39 -6 -42 3 -4 9 8 12 25 4 18 10
32 15 32 5 0 9 13 9 29 0 34 16 51 22 24 2 -10 4 3 4 29 -1 27 -2 48 -3 48 -1
0 -7 -9 -13 -19z"/>
<path d="M2561 4153 c-1 -6 -4 -20 -7 -30 -5 -17 -5 -17 6 0 6 10 9 23 6 30
-3 9 -5 9 -5 0z"/>
<path d="M180 4137 c-20 -15 -19 -29 3 -51 9 -10 17 -22 17 -27 0 -6 8 -5 20
1 11 6 18 16 14 22 -4 7 -9 6 -15 -3 -4 -7 -11 -10 -15 -6 -4 3 -2 12 3 19 12
16 27 55 17 45 -4 -4 -12 -3 -18 2 -7 6 -17 5 -26 -2z"/>
<path d="M478 4132 c-10 -2 -18 -8 -18 -13 0 -13 27 -11 35 2 9 13 4 16 -17
11z"/>
<path d="M34 4114 c-18 -14 -18 -15 4 -4 12 6 22 13 22 15 0 8 -5 6 -26 -11z"/>
<path d="M550 4118 c0 -9 5 -20 11 -24 6 -3 9 -14 6 -24 -3 -13 0 -17 9 -13
10 4 10 10 2 31 -16 37 -28 50 -28 30z"/>
<path d="M632 4110 c-10 -17 -10 -20 2 -20 19 0 31 19 19 31 -5 5 -14 0 -21
-11z"/>
<path d="M337 4113 c-13 -12 -7 -43 7 -43 19 0 28 14 20 34 -7 17 -16 20 -27
9z"/>
<path d="M117 4093 c3 -10 10 -24 16 -30 5 -7 6 -20 3 -29 -4 -10 -2 -14 6
-11 8 2 20 -12 30 -32 13 -29 17 -32 17 -14 1 12 -4 25 -10 29 -6 3 -9 15 -6
25 3 10 0 17 -7 16 -6 -1 -11 8 -10 20 0 12 -3 20 -7 18 -4 -3 -9 2 -13 10 -8
21 -27 19 -19 -2z"/>
<path d="M492 4094 c-21 -23 -8 -48 18 -34 16 9 18 15 10 30 -13 23 -11 23
-28 4z"/>
<path d="M53 4083 c-29 -11 -12 -40 26 -48 19 -4 21 5 6 38 -7 18 -11 19 -32
10z"/>
<path d="M280 4073 c0 -4 5 -15 10 -23 8 -13 10 -13 10 2 0 9 -4 20 -10 23 -5
3 -10 3 -10 -2z"/>
<path d="M3212 4060 c0 -14 2 -19 5 -12 2 6 2 18 0 25 -3 6 -5 1 -5 -13z"/>
<path d="M363 4063 c-7 -3 -13 -9 -13 -15 0 -6 6 -8 14 -5 8 3 17 -1 20 -9 3
-8 2 -12 -3 -9 -13 7 -22 -10 -15 -28 5 -14 45 -13 44 2 -2 20 -37 67 -47 64z"/>
<path d="M430 4059 c0 -8 7 -24 15 -35 14 -18 14 -18 10 5 -5 29 -25 53 -25
30z"/>
<path d="M3080 4051 c0 -5 -3 -18 -7 -28 -6 -16 -5 -16 10 -4 19 15 23 41 7
41 -5 0 -10 -4 -10 -9z"/>
<path d="M520 4035 c-7 -9 -11 -18 -8 -20 3 -3 11 1 18 10 7 9 11 18 8 20 -3
3 -11 -1 -18 -10z"/>
<path d="M1 4032 c-1 -7 6 -27 15 -44 12 -24 18 -28 25 -17 6 9 4 15 -6 17 -7
2 -18 15 -24 30 -5 15 -10 21 -10 14z"/>
<path d="M223 4024 c-8 -20 8 -36 26 -25 15 10 8 41 -9 41 -6 0 -13 -7 -17
-16z"/>
<path d="M76 4013 c-9 -23 3 -34 24 -20 25 15 25 23 1 30 -12 3 -22 -1 -25
-10z"/>
<path d="M305 4010 c3 -5 8 -10 11 -10 2 0 4 5 4 10 0 6 -5 10 -11 10 -5 0 -7
-4 -4 -10z"/>
<path d="M98 3978 c-15 -39 9 -70 39 -50 16 10 5 55 -13 48 -7 -3 -14 0 -17 7
-2 6 -6 5 -9 -5z"/>
<path d="M250 3980 c-8 -5 -12 -11 -9 -14 2 -3 11 -1 19 4 8 5 12 11 9 14 -2
3 -11 1 -19 -4z"/>
<path d="M320 3978 c0 -9 5 -20 10 -23 13 -8 13 5 0 25 -8 13 -10 13 -10 -2z"/>
<path d="M4675 3980 c-3 -6 1 -7 9 -4 18 7 21 14 7 14 -6 0 -13 -4 -16 -10z"/>
<path d="M400 3965 c-17 -21 -8 -28 15 -11 11 8 14 15 8 19 -6 4 -16 0 -23 -8z"/>
<path d="M2442 3950 c0 -14 2 -19 5 -12 2 6 2 18 0 25 -3 6 -5 1 -5 -13z"/>
<path d="M262 3948 c-7 -7 -12 -18 -12 -25 0 -18 29 -16 37 3 8 21 -10 37 -25
22z"/>
<path d="M2465 3950 c3 -5 8 -10 11 -10 2 0 4 5 4 10 0 6 -5 10 -11 10 -5 0
-7 -4 -4 -10z"/>
<path d="M4600 3928 c-30 -17 -81 -44 -112 -60 -32 -16 -58 -33 -58 -38 0 -15
3 -14 113 41 107 54 127 66 127 80 0 13 -9 10 -70 -23z"/>
<path d="M40 3943 c0 -5 7 -21 15 -37 9 -16 13 -37 10 -45 -3 -8 -3 -12 1 -8
4 4 14 1 23 -5 9 -7 13 -8 9 -4 -4 5 -2 16 4 25 7 9 8 13 4 9 -15 -13 -38 13
-26 27 8 9 4 17 -15 29 -14 9 -25 13 -25 9z"/>
<path d="M190 3940 c0 -5 5 -10 10 -10 6 0 10 5 10 10 0 6 -4 10 -10 10 -5 0
-10 -4 -10 -10z"/>
<path d="M345 3920 c-3 -5 -1 -10 4 -10 6 0 11 5 11 10 0 6 -2 10 -4 10 -3 0
-8 -4 -11 -10z"/>
<path d="M2549 3903 c-6 -16 -13 -41 -16 -58 -4 -23 -2 -27 6 -15 6 8 11 24
11 35 0 15 2 17 9 6 6 -10 9 -2 9 23 0 43 -5 45 -19 9z"/>
<path d="M3 3874 c1 -36 5 -50 13 -47 9 3 11 -4 8 -24 -6 -41 8 -58 35 -43
l22 11 -21 35 c-12 19 -18 34 -13 34 4 0 3 4 -3 8 -7 4 -19 23 -27 42 l-15 35
1 -51z"/>
<path d="M140 3905 c-7 -9 -11 -18 -8 -20 3 -3 11 1 18 10 7 9 11 18 8 20 -3
3 -11 -1 -18 -10z"/>
<path d="M2455 3911 c-3 -5 -1 -12 5 -16 5 -3 10 1 10 9 0 18 -6 21 -15 7z"/>
<path d="M205 3901 c-3 -5 -1 -12 5 -16 5 -3 10 1 10 9 0 18 -6 21 -15 7z"/>
<path d="M290 3885 c-11 -13 -11 -18 0 -28 9 -8 11 -8 7 -1 -4 7 0 14 8 18 16
6 21 26 6 26 -5 0 -14 -7 -21 -15z"/>
<path d="M152 3867 c-13 -15 1 -42 17 -33 13 8 15 46 2 46 -5 0 -13 -6 -19
-13z"/>
<path d="M230 3840 c0 -5 5 -10 10 -10 6 0 10 5 10 10 0 6 -4 10 -10 10 -5 0
-10 -4 -10 -10z"/>
<path d="M100 3823 c0 -4 5 -15 10 -23 8 -13 10 -13 10 2 0 9 -4 20 -10 23 -5
3 -10 3 -10 -2z"/>
<path d="M183 3813 c-7 -3 -13 -12 -13 -21 0 -15 2 -15 17 1 18 18 16 27 -4
20z"/>
<path d="M3993 3743 c-39 -4 -43 -7 -43 -31 0 -41 11 -50 60 -54 l45 -3 0 44
c0 48 -1 49 -62 44z"/>
<path d="M64 3725 c-10 -8 -14 -15 -8 -15 5 0 19 7 30 15 10 8 14 15 8 15 -5
0 -19 -7 -30 -15z"/>
<path d="M6 3697 c3 -10 9 -15 12 -12 3 3 0 11 -7 18 -10 9 -11 8 -5 -6z"/>
<path d="M4100 3682 c-41 -33 -6 -95 59 -104 24 -3 25 -2 37 60 11 55 -50 82
-96 44z"/>
<path d="M2522 3630 c0 -14 2 -19 5 -12 2 6 2 18 0 25 -3 6 -5 1 -5 -13z"/>
<path d="M4846 3602 c-3 -6 -1 -14 5 -17 15 -10 25 3 12 16 -7 7 -13 7 -17 1z"/>
<path d="M4900 3562 c0 -4 25 -20 55 -34 41 -19 55 -22 55 -12 0 7 -12 16 -27
19 -16 4 -40 13 -55 21 -16 8 -28 11 -28 6z"/>
<path d="M2582 3330 c0 -19 2 -27 5 -17 2 9 2 25 0 35 -3 9 -5 1 -5 -18z"/>
<path d="M2602 3250 c0 -14 2 -19 5 -12 2 6 2 18 0 25 -3 6 -5 1 -5 -13z"/>
<path d="M2619 3178 c4 -28 6 -29 9 -9 2 13 0 27 -5 32 -6 6 -7 -3 -4 -23z"/>
<path d="M2596 3033 c-4 -9 -2 -21 4 -27 7 -7 10 -2 10 17 0 31 -5 34 -14 10z"/>
<path d="M2632 3030 c0 -14 2 -19 5 -12 2 6 2 18 0 25 -3 6 -5 1 -5 -13z"/>
<path d="M2651 2996 c1 -32 3 -55 6 -52 7 7 5 97 -1 104 -3 2 -5 -21 -5 -52z"/>
<path d="M2692 3030 c0 -14 2 -19 5 -12 2 6 2 18 0 25 -3 6 -5 1 -5 -13z"/>
<path d="M2614 2956 c-3 -8 -1 -23 5 -33 8 -15 10 -13 9 15 -1 35 -5 40 -14
18z"/>
<path d="M6375 2910 c-4 -6 3 -10 14 -10 25 0 27 6 6 13 -8 4 -17 2 -20 -3z"/>
<path d="M6830 2879 c0 -16 20 -49 29 -49 19 0 19 40 1 50 -24 13 -30 13 -30
-1z"/>
<path d="M2623 2798 c2 -15 6 -30 10 -34 10 -10 8 17 -3 41 -8 17 -9 16 -7 -7z"/>
<path d="M5492 2515 c0 -16 2 -22 5 -12 2 9 2 23 0 30 -3 6 -5 -1 -5 -18z"/>
<path d="M5491 2294 c0 -11 3 -14 6 -6 3 7 2 16 -1 19 -3 4 -6 -2 -5 -13z"/>
<path d="M6702 1498 c-7 -7 -12 -18 -12 -25 0 -7 -11 -13 -25 -13 -14 0 -25
-5 -25 -11 0 -5 8 -9 18 -7 9 1 27 -7 40 -20 25 -25 7 -31 -29 -9 -17 9 -23 9
-26 0 -2 -7 -11 -9 -19 -6 -8 3 -14 0 -14 -6 0 -6 1 -11 3 -11 1 0 40 -3 87
-6 47 -3 90 -7 97 -9 6 -2 14 1 16 8 3 9 8 9 18 0 26 -25 108 -11 131 22 4 6
18 10 30 10 20 0 23 5 24 43 1 46 9 43 -96 46 l-45 1 -2 -50 c-4 -71 -8 -79
-35 -64 -13 7 -42 11 -64 10 -41 -2 -42 -2 -43 31 -1 66 -10 85 -29 66z m206
-30 c-7 -19 -21 -12 -25 11 -3 20 -1 22 12 11 9 -7 14 -17 13 -22z m62 13 c0
-5 8 -12 18 -14 13 -4 11 -5 -5 -6 -13 0 -23 3 -23 8 0 5 -8 12 -17 14 -14 4
-12 5 5 6 12 0 22 -3 22 -8z m-60 -59 c0 -13 -12 -22 -22 -16 -10 6 -1 24 13
24 5 0 9 -4 9 -8z"/>
<path d="M6989 1398 c-6 -21 -5 -38 2 -38 5 0 9 9 9 20 0 16 -7 28 -11 18z"/>
<path d="M6968 1113 c7 -3 16 -2 19 1 4 3 -2 6 -13 5 -11 0 -14 -3 -6 -6z"/>
<path d="M6990 996 c0 -2 7 -6 15 -10 8 -3 15 -1 15 4 0 6 -7 10 -15 10 -8 0
-15 -2 -15 -4z"/>
<path d="M6936 982 c-3 -6 3 -12 15 -15 12 -3 19 -1 16 6 -5 15 -24 20 -31 9z"/>
<path d="M6696 934 c-9 -23 -8 -24 14 -24 23 0 26 13 6 29 -11 9 -15 8 -20 -5z"/>
<path d="M6820 860 c-8 -5 -11 -12 -7 -16 4 -4 15 0 24 9 18 18 8 23 -17 7z"/>
<path d="M3473 423 c9 -2 23 -2 30 0 6 3 -1 5 -18 5 -16 0 -22 -2 -12 -5z"/>
<path d="M3560 415 c0 -8 4 -15 8 -15 5 0 9 7 9 15 0 8 -4 15 -9 15 -4 0 -8
-7 -8 -15z"/>
<path d="M4090 394 c0 -14 4 -23 9 -20 5 3 7 15 4 26 -7 28 -13 25 -13 -6z"/>
<path d="M4358 408 c5 -5 16 -8 23 -6 8 3 3 7 -10 11 -17 4 -21 3 -13 -5z"/>
<path d="M4120 401 c0 -6 4 -13 10 -16 6 -3 7 1 4 9 -7 18 -14 21 -14 7z"/>
<path d="M4721 363 c-1 -7 -8 -13 -17 -13 -8 0 -12 -5 -9 -10 4 -6 10 -8 15
-5 4 3 10 0 12 -7 3 -7 7 -8 10 -3 3 6 2 19 -3 30 -4 11 -8 14 -8 8z"/>
<path d="M4760 329 c0 -5 5 -7 10 -4 6 3 10 8 10 11 0 2 -4 4 -10 4 -5 0 -10
-5 -10 -11z"/>
<path d="M6677 313 c-12 -11 -8 -23 8 -23 8 0 15 7 15 15 0 16 -12 20 -23 8z"/>
<path d="M6930 289 c0 -5 5 -7 10 -4 6 3 10 8 10 11 0 2 -4 4 -10 4 -5 0 -10
-5 -10 -11z"/>
<path d="M6065 160 c3 -5 11 -10 16 -10 6 0 7 5 4 10 -3 6 -11 10 -16 10 -6 0
-7 -4 -4 -10z"/>
<path d="M3708 73 c7 -3 16 -2 19 1 4 3 -2 6 -13 5 -11 0 -14 -3 -6 -6z"/>
<path d="M5140 50 c0 -5 5 -10 11 -10 5 0 7 5 4 10 -3 6 -8 10 -11 10 -2 0 -4
-4 -4 -10z"/>
</g>
</svg>
